<?xml version="1.0" standalone="no"?>
 <!DOCTYPE svg PUBLIC "-//W3C//DTD SVG 1.1//EN" 
 "http://www.w3.org/Graphics/SVG/1.1/DTD/svg11.dtd"> 
<svg
  xmlns:svg="http://www.w3.org/2000/svg"
  xmlns="http://www.w3.org/2000/svg"
  xmlns:xlink="http://www.w3.org/1999/xlink"
  version="1.1"
  width="5.128260cm" height="2.123440cm" viewBox="0 0 51282600 21234400">
<title>SVG Picture created as tp4056-brd.svg date 2022/03/24 21:45:17 </title>
  <desc>Picture generated by PCBNEW </desc>
<g style="fill:#000000; fill-opacity:1.000000;stroke:#000000; stroke-opacity:1.000000;
stroke-linecap:round; stroke-linejoin:round;"
 transform="translate(0 0) scale(1 1)">
</g>
<g style="fill:#000000; fill-opacity:0.0; 
stroke:#000000; stroke-width:0.000000; stroke-opacity:1; 
stroke-linecap:round; stroke-linejoin:round;">
<g >
</g>
<g style="fill:#000000; fill-opacity:1.0; 
stroke:#000000; stroke-width:1.000000; stroke-opacity:1; 
stroke-linecap:round; stroke-linejoin:round;">
<circle cx="9010328.000000" cy="12729992.000000" r="225000.000000" /> 
</g>
<g style="fill:#000000; fill-opacity:1.0; 
stroke:#000000; stroke-width:21200.000000; stroke-opacity:1; 
stroke-linecap:round; stroke-linejoin:round;">
</g>
<g style="fill:#000000; fill-opacity:1.0; 
stroke:#000000; stroke-width:1.000000; stroke-opacity:1; 
stroke-linecap:round; stroke-linejoin:round;">
<circle cx="9010328.000000" cy="8990000.000000" r="225000.000000" /> 
</g>
<g style="fill:#000000; fill-opacity:1.0; 
stroke:#000000; stroke-width:21200.000000; stroke-opacity:1; 
stroke-linecap:round; stroke-linejoin:round;">
</g>
<g style="fill:#000000; fill-opacity:1.0; 
stroke:#000000; stroke-width:1.000000; stroke-opacity:1; 
stroke-linecap:round; stroke-linejoin:round;">
<path style="fill:#000000; fill-opacity:1.0; 
stroke:#000000; stroke-width:1.000000; stroke-opacity:1; 
stroke-linecap:round; stroke-linejoin:round;fill-rule:evenodd;"
d="M 8892739.000000,9325001.000000
12892737.000000,9325001.000000
12892737.000000,9774999.000000
8892739.000000,9774999.000000
Z" /> 
<path style="fill:#000000; fill-opacity:1.0; 
stroke:#000000; stroke-width:1.000000; stroke-opacity:1; 
stroke-linecap:round; stroke-linejoin:round;fill-rule:evenodd;"
d="M 8892739.000000,9975001.000000
12892737.000000,9975001.000000
12892737.000000,10424999.000000
8892739.000000,10424999.000000
Z" /> 
<path style="fill:#000000; fill-opacity:1.0; 
stroke:#000000; stroke-width:1.000000; stroke-opacity:1; 
stroke-linecap:round; stroke-linejoin:round;fill-rule:evenodd;"
d="M 8892739.000000,10625001.000000
12892737.000000,10625001.000000
12892737.000000,11074999.000000
8892739.000000,11074999.000000
Z" /> 
<path style="fill:#000000; fill-opacity:1.0; 
stroke:#000000; stroke-width:1.000000; stroke-opacity:1; 
stroke-linecap:round; stroke-linejoin:round;fill-rule:evenodd;"
d="M 8892739.000000,11275001.000000
12892737.000000,11275001.000000
12892737.000000,11724999.000000
8892739.000000,11724999.000000
Z" /> 
<path style="fill:#000000; fill-opacity:1.0; 
stroke:#000000; stroke-width:1.000000; stroke-opacity:1; 
stroke-linecap:round; stroke-linejoin:round;fill-rule:evenodd;"
d="M 8892739.000000,11925001.000000
12892737.000000,11925001.000000
12892737.000000,12374999.000000
8892739.000000,12374999.000000
Z" /> 
<path style="fill:#000000; fill-opacity:1.0; 
stroke:#000000; stroke-width:1.000000; stroke-opacity:1; 
stroke-linecap:round; stroke-linejoin:round;fill-rule:evenodd;"
d="M 5972739.000000,8800001.000000
7872737.000000,8800001.000000
7872737.000000,10599999.000000
5972739.000000,10599999.000000
Z" /> 
<path style="fill:#000000; fill-opacity:1.0; 
stroke:#000000; stroke-width:1.000000; stroke-opacity:1; 
stroke-linecap:round; stroke-linejoin:round;fill-rule:evenodd;"
d="M 6272739.000000,13075001.000000
7572737.000000,13075001.000000
7572737.000000,15374999.000000
6272739.000000,15374999.000000
Z" /> 
<path style="fill:#000000; fill-opacity:1.0; 
stroke:#000000; stroke-width:1.000000; stroke-opacity:1; 
stroke-linecap:round; stroke-linejoin:round;fill-rule:evenodd;"
d="M 6272739.000000,6325001.000000
7572737.000000,6325001.000000
7572737.000000,8624999.000000
6272739.000000,8624999.000000
Z" /> 
<path style="fill:#000000; fill-opacity:1.0; 
stroke:#000000; stroke-width:1.000000; stroke-opacity:1; 
stroke-linecap:round; stroke-linejoin:round;fill-rule:evenodd;"
d="M 8727739.000000,7147501.000000
10277737.000000,7147501.000000
10277737.000000,8572499.000000
8727739.000000,8572499.000000
Z" /> 
<path style="fill:#000000; fill-opacity:1.0; 
stroke:#000000; stroke-width:1.000000; stroke-opacity:1; 
stroke-linecap:round; stroke-linejoin:round;fill-rule:evenodd;"
d="M 5972739.000000,11900001.000000
7872737.000000,11900001.000000
7872737.000000,12899999.000000
5972739.000000,12899999.000000
Z" /> 
<path style="fill:#000000; fill-opacity:1.0; 
stroke:#000000; stroke-width:1.000000; stroke-opacity:1; 
stroke-linecap:round; stroke-linejoin:round;fill-rule:evenodd;"
d="M 8727739.000000,13127501.000000
10277737.000000,13127501.000000
10277737.000000,14552499.000000
8727739.000000,14552499.000000
Z" /> 
</g>
<g >
</g>
<g style="fill:#000000; fill-opacity:1.0; 
stroke:#000000; stroke-width:1.000000; stroke-opacity:1; 
stroke-linecap:round; stroke-linejoin:round;">
<path style="fill:#000000; fill-opacity:1.0; 
stroke:#000000; stroke-width:1.000000; stroke-opacity:1; 
stroke-linecap:round; stroke-linejoin:round;fill-rule:evenodd;"
d="M 42270239.000000,18149999.000000
42270239.000000,16450001.000000
43970237.000000,16450001.000000
43970237.000000,18149999.000000
Z" /> 
</g>
<g >
</g>
<g style="fill:#000000; fill-opacity:1.0; 
stroke:#000000; stroke-width:1.000000; stroke-opacity:1; 
stroke-linecap:round; stroke-linejoin:round;">
<path style="fill:#000000; fill-opacity:1.0; 
stroke:#000000; stroke-width:1.000000; stroke-opacity:1; 
stroke-linecap:round; stroke-linejoin:round;fill-rule:evenodd;"
d="M 37020238.000000,11037500.000000
37002159.000000,11128387.000000
36950676.000000,11205438.000000
36873625.000000,11256921.000000
36782738.000000,11275000.000000
36282738.000000,11275000.000000
36191851.000000,11256921.000000
36114800.000000,11205438.000000
36063317.000000,11128387.000000
36045238.000000,11037500.000000
36045238.000000,10562500.000000
36063317.000000,10471613.000000
36114800.000000,10394562.000000
36191851.000000,10343079.000000
36282738.000000,10325000.000000
36782738.000000,10325000.000000
36873625.000000,10343079.000000
36950676.000000,10394562.000000
37002159.000000,10471613.000000
37020238.000000,10562500.000000
Z" /> 
<path style="fill:#000000; fill-opacity:1.0; 
stroke:#000000; stroke-width:1.000000; stroke-opacity:1; 
stroke-linecap:round; stroke-linejoin:round;fill-rule:evenodd;"
d="M 35195238.000000,11037500.000000
35177159.000000,11128387.000000
35125676.000000,11205438.000000
35048625.000000,11256921.000000
34957738.000000,11275000.000000
34457738.000000,11275000.000000
34366851.000000,11256921.000000
34289800.000000,11205438.000000
34238317.000000,11128387.000000
34220238.000000,11037500.000000
34220238.000000,10562500.000000
34238317.000000,10471613.000000
34289800.000000,10394562.000000
34366851.000000,10343079.000000
34457738.000000,10325000.000000
34957738.000000,10325000.000000
35048625.000000,10343079.000000
35125676.000000,10394562.000000
35177159.000000,10471613.000000
35195238.000000,10562500.000000
Z" /> 
</g>
<g >
</g>
<g style="fill:#000000; fill-opacity:1.0; 
stroke:#000000; stroke-width:1.000000; stroke-opacity:1; 
stroke-linecap:round; stroke-linejoin:round;">
<path style="fill:#000000; fill-opacity:1.0; 
stroke:#000000; stroke-width:1.000000; stroke-opacity:1; 
stroke-linecap:round; stroke-linejoin:round;fill-rule:evenodd;"
d="M 6820239.000000,5099999.000000
6820239.000000,3400001.000000
8520237.000000,3400001.000000
8520237.000000,5099999.000000
Z" /> 
</g>
<g >
</g>
<g style="fill:#000000; fill-opacity:1.0; 
stroke:#000000; stroke-width:1.000000; stroke-opacity:1; 
stroke-linecap:round; stroke-linejoin:round;">
<path style="fill:#000000; fill-opacity:1.0; 
stroke:#000000; stroke-width:1.000000; stroke-opacity:1; 
stroke-linecap:round; stroke-linejoin:round;fill-rule:evenodd;"
d="M 25070238.000000,4450000.000000
25165909.000000,4469030.000000
25247015.000000,4523223.000000
25301208.000000,4604329.000000
25320238.000000,4700000.000000
25320238.000000,5400000.000000
25301208.000000,5495671.000000
25247015.000000,5576777.000000
25165909.000000,5630970.000000
25070238.000000,5650000.000000
24170238.000000,5650000.000000
24074567.000000,5630970.000000
23993461.000000,5576777.000000
23939268.000000,5495671.000000
23920238.000000,5400000.000000
23920238.000000,4700000.000000
23939268.000000,4604329.000000
23993461.000000,4523223.000000
24074567.000000,4469030.000000
24170238.000000,4450000.000000
Z" /> 
<path style="fill:#000000; fill-opacity:1.0; 
stroke:#000000; stroke-width:1.000000; stroke-opacity:1; 
stroke-linecap:round; stroke-linejoin:round;fill-rule:evenodd;"
d="M 25070238.000000,6450000.000000
25165909.000000,6469030.000000
25247015.000000,6523223.000000
25301208.000000,6604329.000000
25320238.000000,6700000.000000
25320238.000000,7400000.000000
25301208.000000,7495671.000000
25247015.000000,7576777.000000
25165909.000000,7630970.000000
25070238.000000,7650000.000000
24170238.000000,7650000.000000
24074567.000000,7630970.000000
23993461.000000,7576777.000000
23939268.000000,7495671.000000
23920238.000000,7400000.000000
23920238.000000,6700000.000000
23939268.000000,6604329.000000
23993461.000000,6523223.000000
24074567.000000,6469030.000000
24170238.000000,6450000.000000
Z" /> 
</g>
<g >
</g>
<g style="fill:#000000; fill-opacity:1.0; 
stroke:#000000; stroke-width:1.000000; stroke-opacity:1; 
stroke-linecap:round; stroke-linejoin:round;">
<path style="fill:#000000; fill-opacity:1.0; 
stroke:#000000; stroke-width:1.000000; stroke-opacity:1; 
stroke-linecap:round; stroke-linejoin:round;fill-rule:evenodd;"
d="M 17315238.000000,13800000.000000
17257835.000000,13788582.000000
17209172.000000,13756066.000000
17176656.000000,13707403.000000
17165238.000000,13650000.000000
17165238.000000,12000000.000000
17176656.000000,11942597.000000
17209172.000000,11893934.000000
17257835.000000,11861418.000000
17315238.000000,11850000.000000
17615238.000000,11850000.000000
17672641.000000,11861418.000000
17721304.000000,11893934.000000
17753820.000000,11942597.000000
17765238.000000,12000000.000000
17765238.000000,13650000.000000
17753820.000000,13707403.000000
17721304.000000,13756066.000000
17672641.000000,13788582.000000
17615238.000000,13800000.000000
Z" /> 
<path style="fill:#000000; fill-opacity:1.0; 
stroke:#000000; stroke-width:1.000000; stroke-opacity:1; 
stroke-linecap:round; stroke-linejoin:round;fill-rule:evenodd;"
d="M 18585238.000000,13800000.000000
18527835.000000,13788582.000000
18479172.000000,13756066.000000
18446656.000000,13707403.000000
18435238.000000,13650000.000000
18435238.000000,12000000.000000
18446656.000000,11942597.000000
18479172.000000,11893934.000000
18527835.000000,11861418.000000
18585238.000000,11850000.000000
18885238.000000,11850000.000000
18942641.000000,11861418.000000
18991304.000000,11893934.000000
19023820.000000,11942597.000000
19035238.000000,12000000.000000
19035238.000000,13650000.000000
19023820.000000,13707403.000000
18991304.000000,13756066.000000
18942641.000000,13788582.000000
18885238.000000,13800000.000000
Z" /> 
<path style="fill:#000000; fill-opacity:1.0; 
stroke:#000000; stroke-width:1.000000; stroke-opacity:1; 
stroke-linecap:round; stroke-linejoin:round;fill-rule:evenodd;"
d="M 19855238.000000,13800000.000000
19797835.000000,13788582.000000
19749172.000000,13756066.000000
19716656.000000,13707403.000000
19705238.000000,13650000.000000
19705238.000000,12000000.000000
19716656.000000,11942597.000000
19749172.000000,11893934.000000
19797835.000000,11861418.000000
19855238.000000,11850000.000000
20155238.000000,11850000.000000
20212641.000000,11861418.000000
20261304.000000,11893934.000000
20293820.000000,11942597.000000
20305238.000000,12000000.000000
20305238.000000,13650000.000000
20293820.000000,13707403.000000
20261304.000000,13756066.000000
20212641.000000,13788582.000000
20155238.000000,13800000.000000
Z" /> 
<path style="fill:#000000; fill-opacity:1.0; 
stroke:#000000; stroke-width:1.000000; stroke-opacity:1; 
stroke-linecap:round; stroke-linejoin:round;fill-rule:evenodd;"
d="M 21125238.000000,13800000.000000
21067835.000000,13788582.000000
21019172.000000,13756066.000000
20986656.000000,13707403.000000
20975238.000000,13650000.000000
20975238.000000,12000000.000000
20986656.000000,11942597.000000
21019172.000000,11893934.000000
21067835.000000,11861418.000000
21125238.000000,11850000.000000
21425238.000000,11850000.000000
21482641.000000,11861418.000000
21531304.000000,11893934.000000
21563820.000000,11942597.000000
21575238.000000,12000000.000000
21575238.000000,13650000.000000
21563820.000000,13707403.000000
21531304.000000,13756066.000000
21482641.000000,13788582.000000
21425238.000000,13800000.000000
Z" /> 
<path style="fill:#000000; fill-opacity:1.0; 
stroke:#000000; stroke-width:1.000000; stroke-opacity:1; 
stroke-linecap:round; stroke-linejoin:round;fill-rule:evenodd;"
d="M 21125238.000000,8850000.000000
21067835.000000,8838582.000000
21019172.000000,8806066.000000
20986656.000000,8757403.000000
20975238.000000,8700000.000000
20975238.000000,7050000.000000
20986656.000000,6992597.000000
21019172.000000,6943934.000000
21067835.000000,6911418.000000
21125238.000000,6900000.000000
21425238.000000,6900000.000000
21482641.000000,6911418.000000
21531304.000000,6943934.000000
21563820.000000,6992597.000000
21575238.000000,7050000.000000
21575238.000000,8700000.000000
21563820.000000,8757403.000000
21531304.000000,8806066.000000
21482641.000000,8838582.000000
21425238.000000,8850000.000000
Z" /> 
<path style="fill:#000000; fill-opacity:1.0; 
stroke:#000000; stroke-width:1.000000; stroke-opacity:1; 
stroke-linecap:round; stroke-linejoin:round;fill-rule:evenodd;"
d="M 19855238.000000,8850000.000000
19797835.000000,8838582.000000
19749172.000000,8806066.000000
19716656.000000,8757403.000000
19705238.000000,8700000.000000
19705238.000000,7050000.000000
19716656.000000,6992597.000000
19749172.000000,6943934.000000
19797835.000000,6911418.000000
19855238.000000,6900000.000000
20155238.000000,6900000.000000
20212641.000000,6911418.000000
20261304.000000,6943934.000000
20293820.000000,6992597.000000
20305238.000000,7050000.000000
20305238.000000,8700000.000000
20293820.000000,8757403.000000
20261304.000000,8806066.000000
20212641.000000,8838582.000000
20155238.000000,8850000.000000
Z" /> 
<path style="fill:#000000; fill-opacity:1.0; 
stroke:#000000; stroke-width:1.000000; stroke-opacity:1; 
stroke-linecap:round; stroke-linejoin:round;fill-rule:evenodd;"
d="M 18585238.000000,8850000.000000
18527835.000000,8838582.000000
18479172.000000,8806066.000000
18446656.000000,8757403.000000
18435238.000000,8700000.000000
18435238.000000,7050000.000000
18446656.000000,6992597.000000
18479172.000000,6943934.000000
18527835.000000,6911418.000000
18585238.000000,6900000.000000
18885238.000000,6900000.000000
18942641.000000,6911418.000000
18991304.000000,6943934.000000
19023820.000000,6992597.000000
19035238.000000,7050000.000000
19035238.000000,8700000.000000
19023820.000000,8757403.000000
18991304.000000,8806066.000000
18942641.000000,8838582.000000
18885238.000000,8850000.000000
Z" /> 
<path style="fill:#000000; fill-opacity:1.0; 
stroke:#000000; stroke-width:1.000000; stroke-opacity:1; 
stroke-linecap:round; stroke-linejoin:round;fill-rule:evenodd;"
d="M 17315238.000000,8850000.000000
17257835.000000,8838582.000000
17209172.000000,8806066.000000
17176656.000000,8757403.000000
17165238.000000,8700000.000000
17165238.000000,7050000.000000
17176656.000000,6992597.000000
17209172.000000,6943934.000000
17257835.000000,6911418.000000
17315238.000000,6900000.000000
17615238.000000,6900000.000000
17672641.000000,6911418.000000
17721304.000000,6943934.000000
17753820.000000,6992597.000000
17765238.000000,7050000.000000
17765238.000000,8700000.000000
17753820.000000,8757403.000000
17721304.000000,8806066.000000
17672641.000000,8838582.000000
17615238.000000,8850000.000000
Z" /> 
<path style="fill:#000000; fill-opacity:1.0; 
stroke:#000000; stroke-width:1.000000; stroke-opacity:1; 
stroke-linecap:round; stroke-linejoin:round;fill-rule:evenodd;"
d="M 20870237.000000,11494999.000000
17870239.000000,11494999.000000
17870239.000000,9205001.000000
20870237.000000,9205001.000000
Z" /> 
</g>
<g >
</g>
<g style="fill:#000000; fill-opacity:1.0; 
stroke:#000000; stroke-width:1.000000; stroke-opacity:1; 
stroke-linecap:round; stroke-linejoin:round;">
<path style="fill:#000000; fill-opacity:1.0; 
stroke:#000000; stroke-width:1.000000; stroke-opacity:1; 
stroke-linecap:round; stroke-linejoin:round;fill-rule:evenodd;"
d="M 16220238.000000,3562500.000000
16238317.000000,3471613.000000
16289800.000000,3394562.000000
16366851.000000,3343079.000000
16457738.000000,3325000.000000
16957738.000000,3325000.000000
17048625.000000,3343079.000000
17125676.000000,3394562.000000
17177159.000000,3471613.000000
17195238.000000,3562500.000000
17195238.000000,4037500.000000
17177159.000000,4128387.000000
17125676.000000,4205438.000000
17048625.000000,4256921.000000
16957738.000000,4275000.000000
16457738.000000,4275000.000000
16366851.000000,4256921.000000
16289800.000000,4205438.000000
16238317.000000,4128387.000000
16220238.000000,4037500.000000
Z" /> 
<path style="fill:#000000; fill-opacity:1.0; 
stroke:#000000; stroke-width:1.000000; stroke-opacity:1; 
stroke-linecap:round; stroke-linejoin:round;fill-rule:evenodd;"
d="M 18045238.000000,3562500.000000
18063317.000000,3471613.000000
18114800.000000,3394562.000000
18191851.000000,3343079.000000
18282738.000000,3325000.000000
18782738.000000,3325000.000000
18873625.000000,3343079.000000
18950676.000000,3394562.000000
19002159.000000,3471613.000000
19020238.000000,3562500.000000
19020238.000000,4037500.000000
19002159.000000,4128387.000000
18950676.000000,4205438.000000
18873625.000000,4256921.000000
18782738.000000,4275000.000000
18282738.000000,4275000.000000
18191851.000000,4256921.000000
18114800.000000,4205438.000000
18063317.000000,4128387.000000
18045238.000000,4037500.000000
Z" /> 
</g>
<g >
</g>
<g style="fill:#000000; fill-opacity:1.0; 
stroke:#000000; stroke-width:1.000000; stroke-opacity:1; 
stroke-linecap:round; stroke-linejoin:round;">
<path style="fill:#000000; fill-opacity:1.0; 
stroke:#000000; stroke-width:1.000000; stroke-opacity:1; 
stroke-linecap:round; stroke-linejoin:round;fill-rule:evenodd;"
d="M 42520239.000000,13899999.000000
42520239.000000,12200001.000000
44220237.000000,12200001.000000
44220237.000000,13899999.000000
Z" /> 
</g>
<g >
</g>
<g style="fill:#000000; fill-opacity:1.0; 
stroke:#000000; stroke-width:1.000000; stroke-opacity:1; 
stroke-linecap:round; stroke-linejoin:round;">
<path style="fill:#000000; fill-opacity:1.0; 
stroke:#000000; stroke-width:1.000000; stroke-opacity:1; 
stroke-linecap:round; stroke-linejoin:round;fill-rule:evenodd;"
d="M 23920238.000000,8887500.000000
24015909.000000,8906530.000000
24097015.000000,8960723.000000
24151208.000000,9041829.000000
24170238.000000,9137500.000000
24170238.000000,9812500.000000
24151208.000000,9908171.000000
24097015.000000,9989277.000000
24015909.000000,10043470.000000
23920238.000000,10062500.000000
22970238.000000,10062500.000000
22874567.000000,10043470.000000
22793461.000000,9989277.000000
22739268.000000,9908171.000000
22720238.000000,9812500.000000
22720238.000000,9137500.000000
22739268.000000,9041829.000000
22793461.000000,8960723.000000
22874567.000000,8906530.000000
22970238.000000,8887500.000000
Z" /> 
<path style="fill:#000000; fill-opacity:1.0; 
stroke:#000000; stroke-width:1.000000; stroke-opacity:1; 
stroke-linecap:round; stroke-linejoin:round;fill-rule:evenodd;"
d="M 23920238.000000,10962500.000000
24015909.000000,10981530.000000
24097015.000000,11035723.000000
24151208.000000,11116829.000000
24170238.000000,11212500.000000
24170238.000000,11887500.000000
24151208.000000,11983171.000000
24097015.000000,12064277.000000
24015909.000000,12118470.000000
23920238.000000,12137500.000000
22970238.000000,12137500.000000
22874567.000000,12118470.000000
22793461.000000,12064277.000000
22739268.000000,11983171.000000
22720238.000000,11887500.000000
22720238.000000,11212500.000000
22739268.000000,11116829.000000
22793461.000000,11035723.000000
22874567.000000,10981530.000000
22970238.000000,10962500.000000
Z" /> 
</g>
<g >
</g>
<g style="fill:#000000; fill-opacity:1.0; 
stroke:#000000; stroke-width:1.000000; stroke-opacity:1; 
stroke-linecap:round; stroke-linejoin:round;">
<path style="fill:#000000; fill-opacity:1.0; 
stroke:#000000; stroke-width:1.000000; stroke-opacity:1; 
stroke-linecap:round; stroke-linejoin:round;fill-rule:evenodd;"
d="M 14720238.000000,4300000.000000
14701208.000000,4395671.000000
14647015.000000,4476777.000000
14565909.000000,4530970.000000
14470238.000000,4550000.000000
13820238.000000,4550000.000000
13724567.000000,4530970.000000
13643461.000000,4476777.000000
13589268.000000,4395671.000000
13570238.000000,4300000.000000
13570238.000000,3400000.000000
13589268.000000,3304329.000000
13643461.000000,3223223.000000
13724567.000000,3169030.000000
13820238.000000,3150000.000000
14470238.000000,3150000.000000
14565909.000000,3169030.000000
14647015.000000,3223223.000000
14701208.000000,3304329.000000
14720238.000000,3400000.000000
Z" /> 
<path style="fill:#000000; fill-opacity:1.0; 
stroke:#000000; stroke-width:1.000000; stroke-opacity:1; 
stroke-linecap:round; stroke-linejoin:round;fill-rule:evenodd;"
d="M 12670238.000000,4300000.000000
12651208.000000,4395671.000000
12597015.000000,4476777.000000
12515909.000000,4530970.000000
12420238.000000,4550000.000000
11770238.000000,4550000.000000
11674567.000000,4530970.000000
11593461.000000,4476777.000000
11539268.000000,4395671.000000
11520238.000000,4300000.000000
11520238.000000,3400000.000000
11539268.000000,3304329.000000
11593461.000000,3223223.000000
11674567.000000,3169030.000000
11770238.000000,3150000.000000
12420238.000000,3150000.000000
12515909.000000,3169030.000000
12597015.000000,3223223.000000
12651208.000000,3304329.000000
12670238.000000,3400000.000000
Z" /> 
</g>
<g >
</g>
<g style="fill:#000000; fill-opacity:1.0; 
stroke:#000000; stroke-width:1.000000; stroke-opacity:1; 
stroke-linecap:round; stroke-linejoin:round;">
<path style="fill:#000000; fill-opacity:1.0; 
stroke:#000000; stroke-width:1.000000; stroke-opacity:1; 
stroke-linecap:round; stroke-linejoin:round;fill-rule:evenodd;"
d="M 13707738.000000,15325000.000000
13726768.000000,15229329.000000
13780961.000000,15148223.000000
13862067.000000,15094030.000000
13957738.000000,15075000.000000
14632738.000000,15075000.000000
14728409.000000,15094030.000000
14809515.000000,15148223.000000
14863708.000000,15229329.000000
14882738.000000,15325000.000000
14882738.000000,16275000.000000
14863708.000000,16370671.000000
14809515.000000,16451777.000000
14728409.000000,16505970.000000
14632738.000000,16525000.000000
13957738.000000,16525000.000000
13862067.000000,16505970.000000
13780961.000000,16451777.000000
13726768.000000,16370671.000000
13707738.000000,16275000.000000
Z" /> 
<path style="fill:#000000; fill-opacity:1.0; 
stroke:#000000; stroke-width:1.000000; stroke-opacity:1; 
stroke-linecap:round; stroke-linejoin:round;fill-rule:evenodd;"
d="M 15782738.000000,15325000.000000
15801768.000000,15229329.000000
15855961.000000,15148223.000000
15937067.000000,15094030.000000
16032738.000000,15075000.000000
16707738.000000,15075000.000000
16803409.000000,15094030.000000
16884515.000000,15148223.000000
16938708.000000,15229329.000000
16957738.000000,15325000.000000
16957738.000000,16275000.000000
16938708.000000,16370671.000000
16884515.000000,16451777.000000
16803409.000000,16505970.000000
16707738.000000,16525000.000000
16032738.000000,16525000.000000
15937067.000000,16505970.000000
15855961.000000,16451777.000000
15801768.000000,16370671.000000
15782738.000000,16275000.000000
Z" /> 
</g>
<g >
</g>
<g style="fill:#000000; fill-opacity:1.0; 
stroke:#000000; stroke-width:1.000000; stroke-opacity:1; 
stroke-linecap:round; stroke-linejoin:round;">
<path style="fill:#000000; fill-opacity:1.0; 
stroke:#000000; stroke-width:1.000000; stroke-opacity:1; 
stroke-linecap:round; stroke-linejoin:round;fill-rule:evenodd;"
d="M 15470238.000000,5312500.000000
15488317.000000,5221613.000000
15539800.000000,5144562.000000
15616851.000000,5093079.000000
15707738.000000,5075000.000000
16207738.000000,5075000.000000
16298625.000000,5093079.000000
16375676.000000,5144562.000000
16427159.000000,5221613.000000
16445238.000000,5312500.000000
16445238.000000,5787500.000000
16427159.000000,5878387.000000
16375676.000000,5955438.000000
16298625.000000,6006921.000000
16207738.000000,6025000.000000
15707738.000000,6025000.000000
15616851.000000,6006921.000000
15539800.000000,5955438.000000
15488317.000000,5878387.000000
15470238.000000,5787500.000000
Z" /> 
<path style="fill:#000000; fill-opacity:1.0; 
stroke:#000000; stroke-width:1.000000; stroke-opacity:1; 
stroke-linecap:round; stroke-linejoin:round;fill-rule:evenodd;"
d="M 17295238.000000,5312500.000000
17313317.000000,5221613.000000
17364800.000000,5144562.000000
17441851.000000,5093079.000000
17532738.000000,5075000.000000
18032738.000000,5075000.000000
18123625.000000,5093079.000000
18200676.000000,5144562.000000
18252159.000000,5221613.000000
18270238.000000,5312500.000000
18270238.000000,5787500.000000
18252159.000000,5878387.000000
18200676.000000,5955438.000000
18123625.000000,6006921.000000
18032738.000000,6025000.000000
17532738.000000,6025000.000000
17441851.000000,6006921.000000
17364800.000000,5955438.000000
17313317.000000,5878387.000000
17295238.000000,5787500.000000
Z" /> 
</g>
<g >
</g>
<g style="fill:#000000; fill-opacity:1.0; 
stroke:#000000; stroke-width:1.000000; stroke-opacity:1; 
stroke-linecap:round; stroke-linejoin:round;">
<path style="fill:#000000; fill-opacity:1.0; 
stroke:#000000; stroke-width:1.000000; stroke-opacity:1; 
stroke-linecap:round; stroke-linejoin:round;fill-rule:evenodd;"
d="M 42770239.000000,8649999.000000
42770239.000000,6950001.000000
44470237.000000,6950001.000000
44470237.000000,8649999.000000
Z" /> 
</g>
<g >
</g>
<g style="fill:#000000; fill-opacity:1.0; 
stroke:#000000; stroke-width:1.000000; stroke-opacity:1; 
stroke-linecap:round; stroke-linejoin:round;">
<path style="fill:#000000; fill-opacity:1.0; 
stroke:#000000; stroke-width:1.000000; stroke-opacity:1; 
stroke-linecap:round; stroke-linejoin:round;fill-rule:evenodd;"
d="M 30745237.000000,16179999.000000
30095239.000000,16179999.000000
30095239.000000,14620001.000000
30745237.000000,14620001.000000
Z" /> 
<path style="fill:#000000; fill-opacity:1.0; 
stroke:#000000; stroke-width:1.000000; stroke-opacity:1; 
stroke-linecap:round; stroke-linejoin:round;fill-rule:evenodd;"
d="M 31695237.000000,16179999.000000
31045239.000000,16179999.000000
31045239.000000,14620001.000000
31695237.000000,14620001.000000
Z" /> 
<path style="fill:#000000; fill-opacity:1.0; 
stroke:#000000; stroke-width:1.000000; stroke-opacity:1; 
stroke-linecap:round; stroke-linejoin:round;fill-rule:evenodd;"
d="M 32645237.000000,16179999.000000
31995239.000000,16179999.000000
31995239.000000,14620001.000000
32645237.000000,14620001.000000
Z" /> 
<path style="fill:#000000; fill-opacity:1.0; 
stroke:#000000; stroke-width:1.000000; stroke-opacity:1; 
stroke-linecap:round; stroke-linejoin:round;fill-rule:evenodd;"
d="M 32645237.000000,13479999.000000
31995239.000000,13479999.000000
31995239.000000,11920001.000000
32645237.000000,11920001.000000
Z" /> 
<path style="fill:#000000; fill-opacity:1.0; 
stroke:#000000; stroke-width:1.000000; stroke-opacity:1; 
stroke-linecap:round; stroke-linejoin:round;fill-rule:evenodd;"
d="M 31695237.000000,13479999.000000
31045239.000000,13479999.000000
31045239.000000,11920001.000000
31695237.000000,11920001.000000
Z" /> 
<path style="fill:#000000; fill-opacity:1.0; 
stroke:#000000; stroke-width:1.000000; stroke-opacity:1; 
stroke-linecap:round; stroke-linejoin:round;fill-rule:evenodd;"
d="M 30745237.000000,13479999.000000
30095239.000000,13479999.000000
30095239.000000,11920001.000000
30745237.000000,11920001.000000
Z" /> 
</g>
<g >
</g>
<g style="fill:#000000; fill-opacity:1.0; 
stroke:#000000; stroke-width:1.000000; stroke-opacity:1; 
stroke-linecap:round; stroke-linejoin:round;">
<path style="fill:#000000; fill-opacity:1.0; 
stroke:#000000; stroke-width:1.000000; stroke-opacity:1; 
stroke-linecap:round; stroke-linejoin:round;fill-rule:evenodd;"
d="M 38820238.000000,14175000.000000
38801208.000000,14270671.000000
38747015.000000,14351777.000000
38665909.000000,14405970.000000
38570238.000000,14425000.000000
37770238.000000,14425000.000000
37674567.000000,14405970.000000
37593461.000000,14351777.000000
37539268.000000,14270671.000000
37520238.000000,14175000.000000
37520238.000000,12925000.000000
37539268.000000,12829329.000000
37593461.000000,12748223.000000
37674567.000000,12694030.000000
37770238.000000,12675000.000000
38570238.000000,12675000.000000
38665909.000000,12694030.000000
38747015.000000,12748223.000000
38801208.000000,12829329.000000
38820238.000000,12925000.000000
Z" /> 
<path style="fill:#000000; fill-opacity:1.0; 
stroke:#000000; stroke-width:1.000000; stroke-opacity:1; 
stroke-linecap:round; stroke-linejoin:round;fill-rule:evenodd;"
d="M 35720238.000000,14175000.000000
35701208.000000,14270671.000000
35647015.000000,14351777.000000
35565909.000000,14405970.000000
35470238.000000,14425000.000000
34670238.000000,14425000.000000
34574567.000000,14405970.000000
34493461.000000,14351777.000000
34439268.000000,14270671.000000
34420238.000000,14175000.000000
34420238.000000,12925000.000000
34439268.000000,12829329.000000
34493461.000000,12748223.000000
34574567.000000,12694030.000000
34670238.000000,12675000.000000
35470238.000000,12675000.000000
35565909.000000,12694030.000000
35647015.000000,12748223.000000
35701208.000000,12829329.000000
35720238.000000,12925000.000000
Z" /> 
</g>
<g >
</g>
<g style="fill:#000000; fill-opacity:1.0; 
stroke:#000000; stroke-width:1.000000; stroke-opacity:1; 
stroke-linecap:round; stroke-linejoin:round;">
<path style="fill:#000000; fill-opacity:1.0; 
stroke:#000000; stroke-width:1.000000; stroke-opacity:1; 
stroke-linecap:round; stroke-linejoin:round;fill-rule:evenodd;"
d="M 26345238.000000,8962500.000000
26440909.000000,8981530.000000
26522015.000000,9035723.000000
26576208.000000,9116829.000000
26595238.000000,9212500.000000
26595238.000000,9887500.000000
26576208.000000,9983171.000000
26522015.000000,10064277.000000
26440909.000000,10118470.000000
26345238.000000,10137500.000000
25395238.000000,10137500.000000
25299567.000000,10118470.000000
25218461.000000,10064277.000000
25164268.000000,9983171.000000
25145238.000000,9887500.000000
25145238.000000,9212500.000000
25164268.000000,9116829.000000
25218461.000000,9035723.000000
25299567.000000,8981530.000000
25395238.000000,8962500.000000
Z" /> 
<path style="fill:#000000; fill-opacity:1.0; 
stroke:#000000; stroke-width:1.000000; stroke-opacity:1; 
stroke-linecap:round; stroke-linejoin:round;fill-rule:evenodd;"
d="M 26345238.000000,11037500.000000
26440909.000000,11056530.000000
26522015.000000,11110723.000000
26576208.000000,11191829.000000
26595238.000000,11287500.000000
26595238.000000,11962500.000000
26576208.000000,12058171.000000
26522015.000000,12139277.000000
26440909.000000,12193470.000000
26345238.000000,12212500.000000
25395238.000000,12212500.000000
25299567.000000,12193470.000000
25218461.000000,12139277.000000
25164268.000000,12058171.000000
25145238.000000,11962500.000000
25145238.000000,11287500.000000
25164268.000000,11191829.000000
25218461.000000,11110723.000000
25299567.000000,11056530.000000
25395238.000000,11037500.000000
Z" /> 
</g>
<g >
</g>
<g style="fill:#000000; fill-opacity:1.0; 
stroke:#000000; stroke-width:1.000000; stroke-opacity:1; 
stroke-linecap:round; stroke-linejoin:round;">
<path style="fill:#000000; fill-opacity:1.0; 
stroke:#000000; stroke-width:1.000000; stroke-opacity:1; 
stroke-linecap:round; stroke-linejoin:round;fill-rule:evenodd;"
d="M 7220239.000000,18399999.000000
7220239.000000,16700001.000000
8920237.000000,16700001.000000
8920237.000000,18399999.000000
Z" /> 
</g>
<g >
</g>
<g style="fill:#000000; fill-opacity:1.0; 
stroke:#000000; stroke-width:1.000000; stroke-opacity:1; 
stroke-linecap:round; stroke-linejoin:round;">
<path style="fill:#000000; fill-opacity:1.0; 
stroke:#000000; stroke-width:1.000000; stroke-opacity:1; 
stroke-linecap:round; stroke-linejoin:round;fill-rule:evenodd;"
d="M 42770239.000000,3899999.000000
42770239.000000,2200001.000000
44470237.000000,2200001.000000
44470237.000000,3899999.000000
Z" /> 
</g>
<g >
</g>
<g style="fill:#000000; fill-opacity:1.0; 
stroke:#000000; stroke-width:1.000000; stroke-opacity:1; 
stroke-linecap:round; stroke-linejoin:round;">
<path style="fill:#000000; fill-opacity:1.0; 
stroke:#000000; stroke-width:1.000000; stroke-opacity:1; 
stroke-linecap:round; stroke-linejoin:round;fill-rule:evenodd;"
d="M 14720238.000000,7250000.000000
14701208.000000,7345671.000000
14647015.000000,7426777.000000
14565909.000000,7480970.000000
14470238.000000,7500000.000000
13820238.000000,7500000.000000
13724567.000000,7480970.000000
13643461.000000,7426777.000000
13589268.000000,7345671.000000
13570238.000000,7250000.000000
13570238.000000,6350000.000000
13589268.000000,6254329.000000
13643461.000000,6173223.000000
13724567.000000,6119030.000000
13820238.000000,6100000.000000
14470238.000000,6100000.000000
14565909.000000,6119030.000000
14647015.000000,6173223.000000
14701208.000000,6254329.000000
14720238.000000,6350000.000000
Z" /> 
<path style="fill:#000000; fill-opacity:1.0; 
stroke:#000000; stroke-width:1.000000; stroke-opacity:1; 
stroke-linecap:round; stroke-linejoin:round;fill-rule:evenodd;"
d="M 12670238.000000,7250000.000000
12651208.000000,7345671.000000
12597015.000000,7426777.000000
12515909.000000,7480970.000000
12420238.000000,7500000.000000
11770238.000000,7500000.000000
11674567.000000,7480970.000000
11593461.000000,7426777.000000
11539268.000000,7345671.000000
11520238.000000,7250000.000000
11520238.000000,6350000.000000
11539268.000000,6254329.000000
11593461.000000,6173223.000000
11674567.000000,6119030.000000
11770238.000000,6100000.000000
12420238.000000,6100000.000000
12515909.000000,6119030.000000
12597015.000000,6173223.000000
12651208.000000,6254329.000000
12670238.000000,6350000.000000
Z" /> 
</g>
<g >
</g>
<g style="fill:#000000; fill-opacity:1.0; 
stroke:#000000; stroke-width:1.000000; stroke-opacity:1; 
stroke-linecap:round; stroke-linejoin:round;">
<path style="fill:#000000; fill-opacity:1.0; 
stroke:#000000; stroke-width:1.000000; stroke-opacity:1; 
stroke-linecap:round; stroke-linejoin:round;fill-rule:evenodd;"
d="M 19270238.000000,16100000.000000
19289268.000000,16004329.000000
19343461.000000,15923223.000000
19424567.000000,15869030.000000
19520238.000000,15850000.000000
20220238.000000,15850000.000000
20315909.000000,15869030.000000
20397015.000000,15923223.000000
20451208.000000,16004329.000000
20470238.000000,16100000.000000
20470238.000000,17000000.000000
20451208.000000,17095671.000000
20397015.000000,17176777.000000
20315909.000000,17230970.000000
20220238.000000,17250000.000000
19520238.000000,17250000.000000
19424567.000000,17230970.000000
19343461.000000,17176777.000000
19289268.000000,17095671.000000
19270238.000000,17000000.000000
Z" /> 
<path style="fill:#000000; fill-opacity:1.0; 
stroke:#000000; stroke-width:1.000000; stroke-opacity:1; 
stroke-linecap:round; stroke-linejoin:round;fill-rule:evenodd;"
d="M 21270238.000000,16100000.000000
21289268.000000,16004329.000000
21343461.000000,15923223.000000
21424567.000000,15869030.000000
21520238.000000,15850000.000000
22220238.000000,15850000.000000
22315909.000000,15869030.000000
22397015.000000,15923223.000000
22451208.000000,16004329.000000
22470238.000000,16100000.000000
22470238.000000,17000000.000000
22451208.000000,17095671.000000
22397015.000000,17176777.000000
22315909.000000,17230970.000000
22220238.000000,17250000.000000
21520238.000000,17250000.000000
21424567.000000,17230970.000000
21343461.000000,17176777.000000
21289268.000000,17095671.000000
21270238.000000,17000000.000000
Z" /> 
</g>
<g >
</g>
<g style="fill:#000000; fill-opacity:1.0; 
stroke:#000000; stroke-width:1.000000; stroke-opacity:1; 
stroke-linecap:round; stroke-linejoin:round;">
<path style="fill:#000000; fill-opacity:1.0; 
stroke:#000000; stroke-width:1.000000; stroke-opacity:1; 
stroke-linecap:round; stroke-linejoin:round;fill-rule:evenodd;"
d="M 30995237.000000,9429999.000000
30345239.000000,9429999.000000
30345239.000000,7870001.000000
30995237.000000,7870001.000000
Z" /> 
<path style="fill:#000000; fill-opacity:1.0; 
stroke:#000000; stroke-width:1.000000; stroke-opacity:1; 
stroke-linecap:round; stroke-linejoin:round;fill-rule:evenodd;"
d="M 31945237.000000,9429999.000000
31295239.000000,9429999.000000
31295239.000000,7870001.000000
31945237.000000,7870001.000000
Z" /> 
<path style="fill:#000000; fill-opacity:1.0; 
stroke:#000000; stroke-width:1.000000; stroke-opacity:1; 
stroke-linecap:round; stroke-linejoin:round;fill-rule:evenodd;"
d="M 32895237.000000,9429999.000000
32245239.000000,9429999.000000
32245239.000000,7870001.000000
32895237.000000,7870001.000000
Z" /> 
<path style="fill:#000000; fill-opacity:1.0; 
stroke:#000000; stroke-width:1.000000; stroke-opacity:1; 
stroke-linecap:round; stroke-linejoin:round;fill-rule:evenodd;"
d="M 32895237.000000,6729999.000000
32245239.000000,6729999.000000
32245239.000000,5170001.000000
32895237.000000,5170001.000000
Z" /> 
<path style="fill:#000000; fill-opacity:1.0; 
stroke:#000000; stroke-width:1.000000; stroke-opacity:1; 
stroke-linecap:round; stroke-linejoin:round;fill-rule:evenodd;"
d="M 31945237.000000,6729999.000000
31295239.000000,6729999.000000
31295239.000000,5170001.000000
31945237.000000,5170001.000000
Z" /> 
<path style="fill:#000000; fill-opacity:1.0; 
stroke:#000000; stroke-width:1.000000; stroke-opacity:1; 
stroke-linecap:round; stroke-linejoin:round;fill-rule:evenodd;"
d="M 30995237.000000,6729999.000000
30345239.000000,6729999.000000
30345239.000000,5170001.000000
30995237.000000,5170001.000000
Z" /> 
</g>
<g >
</g>
<g >
</g>
<g style="fill:#000000; fill-opacity:1.0; 
stroke:#000000; stroke-width:1.000000; stroke-opacity:1; 
stroke-linecap:round; stroke-linejoin:round;">
</g>
<g style="fill:#000000; fill-opacity:1.0; 
stroke:#000000; stroke-width:500000.000000; stroke-opacity:1; 
stroke-linecap:round; stroke-linejoin:round;">
</g>
<g style="fill:#000000; fill-opacity:0.0; 
stroke:#000000; stroke-width:500000.000000; stroke-opacity:1; 
stroke-linecap:round; stroke-linejoin:round;">
<path d="M14295238 15800000
L13970238 15475000
" />
<path d="M13970238 15475000
L13970238 13850000
" />
<path d="M13970238 13850000
L14570238 13250000
" />
<path d="M14570238 13250000
L14570238 12390000
" />
<path d="M14570238 12390000
L16390238 10570000
" />
</g>
<g style="fill:#000000; fill-opacity:0.0; 
stroke:#000000; stroke-width:400000.000000; stroke-opacity:1; 
stroke-linecap:round; stroke-linejoin:round;">
<path d="M10892738 12150000
L10970238 12150000
" />
<path d="M10970238 12150000
L11970238 13150000
" />
</g>
<g style="fill:#000000; fill-opacity:0.0; 
stroke:#000000; stroke-width:800000.000000; stroke-opacity:1; 
stroke-linecap:round; stroke-linejoin:round;">
<path d="M8070238 17950000
L11570238 17950000
" />
<path d="M11570238 17950000
L12370238 17950000
" />
<path d="M11970238 13150000
L11970238 17550000
" />
</g>
<g style="fill:#000000; fill-opacity:0.0; 
stroke:#000000; stroke-width:400000.000000; stroke-opacity:1; 
stroke-linecap:round; stroke-linejoin:round;">
<path d="M11970238 17550000
L11570238 17950000
" />
</g>
<g style="fill:#000000; fill-opacity:0.0; 
stroke:#000000; stroke-width:800000.000000; stroke-opacity:1; 
stroke-linecap:round; stroke-linejoin:round;">
<path d="M14370238 8550000
L14620238 8800000
" />
<path d="M14620238 8800000
L16390238 10570000
" />
</g>
<g style="fill:#000000; fill-opacity:0.0; 
stroke:#000000; stroke-width:400000.000000; stroke-opacity:1; 
stroke-linecap:round; stroke-linejoin:round;">
<path d="M10892738 9550000
L13670238 9550000
" />
</g>
<g style="fill:#000000; fill-opacity:0.0; 
stroke:#000000; stroke-width:800000.000000; stroke-opacity:1; 
stroke-linecap:round; stroke-linejoin:round;">
<path d="M13670238 9550000
L14420238 8800000
" />
</g>
<g style="fill:#000000; fill-opacity:0.0; 
stroke:#000000; stroke-width:400000.000000; stroke-opacity:1; 
stroke-linecap:round; stroke-linejoin:round;">
<path d="M14420238 8800000
L14620238 8800000
" />
</g>
<g style="fill:#000000; fill-opacity:0.0; 
stroke:#000000; stroke-width:500000.000000; stroke-opacity:1; 
stroke-linecap:round; stroke-linejoin:round;">
<path d="M6922738 14225000
L9117738 14225000
" />
<path d="M9117738 14225000
L9502738 13840000
" />
<path d="M6922738 12400000
L6922738 14225000
" />
<path d="M6922738 12400000
L6922738 9700000
" />
<path d="M6922738 9700000
L6922738 7475000
" />
<path d="M9502738 7860000
L7307738 7860000
" />
<path d="M7307738 7860000
L6922738 7475000
" />
</g>
<g style="fill:#000000; fill-opacity:0.0; 
stroke:#000000; stroke-width:800000.000000; stroke-opacity:1; 
stroke-linecap:round; stroke-linejoin:round;">
<path d="M42420238 1850000
L42920238 2350000
" />
</g>
<g style="fill:#000000; fill-opacity:0.0; 
stroke:#000000; stroke-width:500000.000000; stroke-opacity:1; 
stroke-linecap:round; stroke-linejoin:round;">
<path d="M22870238 5050000
L24620238 5050000
" />
</g>
<g style="fill:#000000; fill-opacity:0.0; 
stroke:#000000; stroke-width:800000.000000; stroke-opacity:1; 
stroke-linecap:round; stroke-linejoin:round;">
<path d="M27270238 1850000
L42420238 1850000
" />
</g>
<g style="fill:#000000; fill-opacity:0.0; 
stroke:#000000; stroke-width:500000.000000; stroke-opacity:1; 
stroke-linecap:round; stroke-linejoin:round;">
<path d="M21275238 6645000
L22870238 5050000
" />
<path d="M24620238 5050000
L24620238 4500000
" />
<path d="M22025238 6955000
L21275238 6955000
" />
<path d="M21275238 6955000
L21275238 6645000
" />
<path d="M23445238 8375000
L22025238 6955000
" />
<path d="M42920238 2350000
L43620238 3050000
" />
<path d="M21275238 6955000
L21275238 7875000
" />
<path d="M23445238 9475000
L23445238 8375000
" />
</g>
<g style="fill:#000000; fill-opacity:0.0; 
stroke:#000000; stroke-width:1000000.000000; stroke-opacity:1; 
stroke-linecap:round; stroke-linejoin:round;">
<path d="M43620238 7800000
L43620238 3050000
" />
</g>
<g style="fill:#000000; fill-opacity:0.0; 
stroke:#000000; stroke-width:800000.000000; stroke-opacity:1; 
stroke-linecap:round; stroke-linejoin:round;">
<path d="M24620238 4500000
L27270238 1850000
" />
</g>
<g style="fill:#000000; fill-opacity:0.0; 
stroke:#000000; stroke-width:500000.000000; stroke-opacity:1; 
stroke-linecap:round; stroke-linejoin:round;">
<path d="M17782738 5550000
L18370238 5550000
" />
<path d="M18370238 5550000
L18735238 5915000
" />
<path d="M18735238 5915000
L18735238 7875000
" />
<path d="M14145238 6800000
L14295238 6950000
" />
<path d="M14557738 6950000
L15957738 5550000
" />
<path d="M14295238 6950000
L14557738 6950000
" />
<path d="M23370238 16300000
L23370238 11625000
" />
<path d="M45620238 11050000
L45620238 17050000
" />
<path d="M17465238 14955000
L16370238 16050000
" />
<path d="M16370238 16800000
L16370238 16550000
" />
<path d="M34770238 16050000
L36620238 16050000
" />
<path d="M17465238 12825000
L17465238 14955000
" />
<path d="M45120238 10550000
L45620238 11050000
" />
<path d="M45620238 17050000
L45370238 17300000
" />
</g>
<g style="fill:#000000; fill-opacity:0.0; 
stroke:#000000; stroke-width:800000.000000; stroke-opacity:1; 
stroke-linecap:round; stroke-linejoin:round;">
<path d="M24370238 19050000
L41370238 19050000
" />
</g>
<g style="fill:#000000; fill-opacity:0.0; 
stroke:#000000; stroke-width:500000.000000; stroke-opacity:1; 
stroke-linecap:round; stroke-linejoin:round;">
<path d="M23370238 17550000
L23370238 16300000
" />
<path d="M16370238 16550000
L16370238 18300000
" />
<path d="M32320238 15400000
L34120238 15400000
" />
<path d="M21870238 16550000
L23120238 16550000
" />
</g>
<g style="fill:#000000; fill-opacity:0.0; 
stroke:#000000; stroke-width:800000.000000; stroke-opacity:1; 
stroke-linecap:round; stroke-linejoin:round;">
<path d="M16020238 17950000
L16370238 18300000
" />
</g>
<g style="fill:#000000; fill-opacity:0.0; 
stroke:#000000; stroke-width:500000.000000; stroke-opacity:1; 
stroke-linecap:round; stroke-linejoin:round;">
<path d="M40120238 11050000
L40620238 10550000
" />
</g>
<g style="fill:#000000; fill-opacity:0.0; 
stroke:#000000; stroke-width:800000.000000; stroke-opacity:1; 
stroke-linecap:round; stroke-linejoin:round;">
<path d="M41370238 19050000
L43120238 17300000
" />
</g>
<g style="fill:#000000; fill-opacity:0.0; 
stroke:#000000; stroke-width:500000.000000; stroke-opacity:1; 
stroke-linecap:round; stroke-linejoin:round;">
<path d="M23120238 16550000
L23370238 16300000
" />
<path d="M22520238 18800000
L23120238 18200000
" />
</g>
<g style="fill:#000000; fill-opacity:0.0; 
stroke:#000000; stroke-width:400000.000000; stroke-opacity:1; 
stroke-linecap:round; stroke-linejoin:round;">
<path d="M36532738 10800000
L36619758 10887020
" />
</g>
<g style="fill:#000000; fill-opacity:0.0; 
stroke:#000000; stroke-width:500000.000000; stroke-opacity:1; 
stroke-linecap:round; stroke-linejoin:round;">
<path d="M21120238 14800000
L20370238 14800000
" />
</g>
<g style="fill:#000000; fill-opacity:0.0; 
stroke:#000000; stroke-width:800000.000000; stroke-opacity:1; 
stroke-linecap:round; stroke-linejoin:round;">
<path d="M16370238 18300000
L16870238 18800000
" />
</g>
<g style="fill:#000000; fill-opacity:0.0; 
stroke:#000000; stroke-width:500000.000000; stroke-opacity:1; 
stroke-linecap:round; stroke-linejoin:round;">
<path d="M36620238 16050000
L36620238 15550000
" />
</g>
<g style="fill:#000000; fill-opacity:0.0; 
stroke:#000000; stroke-width:800000.000000; stroke-opacity:1; 
stroke-linecap:round; stroke-linejoin:round;">
<path d="M12370238 17950000
L16020238 17950000
" />
</g>
<g style="fill:#000000; fill-opacity:0.0; 
stroke:#000000; stroke-width:500000.000000; stroke-opacity:1; 
stroke-linecap:round; stroke-linejoin:round;">
<path d="M21870238 15550000
L21120238 14800000
" />
<path d="M23370238 11625000
L23445238 11550000
" />
<path d="M23120238 18200000
L23120238 17800000
" />
</g>
<g style="fill:#000000; fill-opacity:0.0; 
stroke:#000000; stroke-width:800000.000000; stroke-opacity:1; 
stroke-linecap:round; stroke-linejoin:round;">
<path d="M23120238 17800000
L24370238 19050000
" />
</g>
<g style="fill:#000000; fill-opacity:0.0; 
stroke:#000000; stroke-width:500000.000000; stroke-opacity:1; 
stroke-linecap:round; stroke-linejoin:round;">
<path d="M38870238 15550000
L40120238 14300000
" />
<path d="M21870238 16550000
L21870238 15550000
" />
<path d="M36620238 15550000
L36620238 10887500
" />
<path d="M40120238 14300000
L40120238 11050000
" />
<path d="M36620238 15550000
L38870238 15550000
" />
<path d="M34120238 15400000
L34770238 16050000
" />
<path d="M16370238 16050000
L16370238 16550000
" />
<path d="M20370238 14800000
L20005238 14435000
" />
<path d="M45370238 17300000
L43120238 17300000
" />
<path d="M36620238 10887500
L36532738 10800000
" />
<path d="M40620238 10550000
L45120238 10550000
" />
<path d="M23120238 17800000
L23370238 17550000
" />
</g>
<g style="fill:#000000; fill-opacity:0.0; 
stroke:#000000; stroke-width:800000.000000; stroke-opacity:1; 
stroke-linecap:round; stroke-linejoin:round;">
<path d="M16870238 18800000
L22520238 18800000
" />
</g>
<g style="fill:#000000; fill-opacity:0.0; 
stroke:#000000; stroke-width:500000.000000; stroke-opacity:1; 
stroke-linecap:round; stroke-linejoin:round;">
<path d="M20005238 14435000
L20005238 12825000
" />
<path d="M20920238 10350000
L21370238 10800000
" />
</g>
<g style="fill:#000000; fill-opacity:0.0; 
stroke:#000000; stroke-width:800000.000000; stroke-opacity:1; 
stroke-linecap:round; stroke-linejoin:round;">
<path d="M10270238 4350000
L12095238 6175000
" />
</g>
<g style="fill:#000000; fill-opacity:0.0; 
stroke:#000000; stroke-width:500000.000000; stroke-opacity:1; 
stroke-linecap:round; stroke-linejoin:round;">
<path d="M17870238 10350000
L19370238 10350000
" />
</g>
<g style="fill:#000000; fill-opacity:0.0; 
stroke:#000000; stroke-width:800000.000000; stroke-opacity:1; 
stroke-linecap:round; stroke-linejoin:round;">
<path d="M17465238 9945000
L17870238 10350000
" />
<path d="M10570238 3950000
L11995238 3950000
" />
</g>
<g style="fill:#000000; fill-opacity:0.0; 
stroke:#000000; stroke-width:500000.000000; stroke-opacity:1; 
stroke-linecap:round; stroke-linejoin:round;">
<path d="M21370238 10800000
L21370238 12730000
" />
<path d="M19370238 10350000
L20920238 10350000
" />
<path d="M12095238 6800000
L13657738 8362500
" />
</g>
<g style="fill:#000000; fill-opacity:0.0; 
stroke:#000000; stroke-width:800000.000000; stroke-opacity:1; 
stroke-linecap:round; stroke-linejoin:round;">
<path d="M11995238 3950000
L12095238 3850000
" />
<path d="M10270238 4250000
L10570238 3950000
" />
<path d="M10270238 4250000
L7670238 4250000
" />
</g>
<g style="fill:#000000; fill-opacity:0.0; 
stroke:#000000; stroke-width:500000.000000; stroke-opacity:1; 
stroke-linecap:round; stroke-linejoin:round;">
<path d="M13657738 8362500
L13845238 8550000
" />
</g>
<g style="fill:#000000; fill-opacity:0.0; 
stroke:#000000; stroke-width:400000.000000; stroke-opacity:1; 
stroke-linecap:round; stroke-linejoin:round;">
<path d="M13657738 8462500
L13657738 8362500
" />
</g>
<g style="fill:#000000; fill-opacity:0.0; 
stroke:#000000; stroke-width:800000.000000; stroke-opacity:1; 
stroke-linecap:round; stroke-linejoin:round;">
<path d="M10270238 4250000
L10270238 4350000
" />
<path d="M17015238 9945000
L17465238 9945000
" />
<path d="M12095238 6175000
L12095238 6800000
" />
</g>
<g style="fill:#000000; fill-opacity:0.0; 
stroke:#000000; stroke-width:500000.000000; stroke-opacity:1; 
stroke-linecap:round; stroke-linejoin:round;">
<path d="M17465238 7875000
L17465238 9945000
" />
</g>
<g style="fill:#000000; fill-opacity:0.0; 
stroke:#000000; stroke-width:800000.000000; stroke-opacity:1; 
stroke-linecap:round; stroke-linejoin:round;">
<path d="M16390238 10570000
L17015238 9945000
" />
</g>
<g style="fill:#000000; fill-opacity:0.0; 
stroke:#000000; stroke-width:500000.000000; stroke-opacity:1; 
stroke-linecap:round; stroke-linejoin:round;">
<path d="M13845238 8550000
L14370238 8550000
" />
<path d="M21370238 12730000
L21275238 12825000
" />
<path d="M16657738 3850000
L16707738 3800000
" />
<path d="M14145238 3850000
L16657738 3850000
" />
<path d="M26770238 5650000
L26770238 6550000
" />
<path d="M25870238 9550000
L25870238 8300000
" />
<path d="M25870238 8300000
L24620238 7050000
" />
</g>
<g style="fill:#000000; fill-opacity:0.0; 
stroke:#000000; stroke-width:800000.000000; stroke-opacity:1; 
stroke-linecap:round; stroke-linejoin:round;">
<path d="M30920718 3550000
L28870238 3550000
" />
<path d="M31620238 4249520
L30920718 3550000
" />
</g>
<g style="fill:#000000; fill-opacity:0.0; 
stroke:#000000; stroke-width:500000.000000; stroke-opacity:1; 
stroke-linecap:round; stroke-linejoin:round;">
<path d="M26770238 6550000
L26270238 7050000
" />
</g>
<g style="fill:#000000; fill-opacity:0.0; 
stroke:#000000; stroke-width:800000.000000; stroke-opacity:1; 
stroke-linecap:round; stroke-linejoin:round;">
<path d="M28370238 3550000
L26770238 5150000
" />
</g>
<g style="fill:#000000; fill-opacity:0.0; 
stroke:#000000; stroke-width:500000.000000; stroke-opacity:1; 
stroke-linecap:round; stroke-linejoin:round;">
<path d="M31620238 5950000
L31620238 4249520
" />
<path d="M26270238 7050000
L24620238 7050000
" />
</g>
<g style="fill:#000000; fill-opacity:0.0; 
stroke:#000000; stroke-width:800000.000000; stroke-opacity:1; 
stroke-linecap:round; stroke-linejoin:round;">
<path d="M28870238 3550000
L28370238 3550000
" />
<path d="M26770238 5150000
L26770238 5650000
" />
</g>
<g style="fill:#000000; fill-opacity:0.0; 
stroke:#000000; stroke-width:500000.000000; stroke-opacity:1; 
stroke-linecap:round; stroke-linejoin:round;">
<path d="M20005238 5185000
L20005238 7875000
" />
<path d="M18582738 3850000
L18670238 3850000
" />
<path d="M18532738 3800000
L18582738 3850000
" />
<path d="M18670238 3850000
L20005238 5185000
" />
<path d="M31620238 10550000
L31620238 8650000
" />
<path d="M31870238 10800000
L31620238 10550000
" />
<path d="M34707738 10800000
L31870238 10800000
" />
<path d="M18735238 15415000
L18735238 12825000
" />
<path d="M19870238 16550000
L18735238 15415000
" />
</g>
<g style="fill:#000000; fill-opacity:0.0; 
stroke:#000000; stroke-width:800000.000000; stroke-opacity:1; 
stroke-linecap:round; stroke-linejoin:round;">
<path d="M25870238 15800000
L27370238 17300000
" />
<path d="M30170238 17650000
L29820238 17300000
" />
<path d="M29820238 17300000
L27370238 17300000
" />
</g>
<g style="fill:#000000; fill-opacity:0.0; 
stroke:#000000; stroke-width:500000.000000; stroke-opacity:1; 
stroke-linecap:round; stroke-linejoin:round;">
<path d="M27045238 11625000
L25870238 11625000
" />
<path d="M30520238 4950000
L29220238 4950000
" />
</g>
<g style="fill:#000000; fill-opacity:0.0; 
stroke:#000000; stroke-width:800000.000000; stroke-opacity:1; 
stroke-linecap:round; stroke-linejoin:round;">
<path d="M25870238 11625000
L25870238 15800000
" />
<path d="M43370238 13050000
L42020238 13050000
" />
<path d="M41570238 14750000
L38670238 17650000
" />
</g>
<g style="fill:#000000; fill-opacity:0.0; 
stroke:#000000; stroke-width:500000.000000; stroke-opacity:1; 
stroke-linecap:round; stroke-linejoin:round;">
<path d="M29220238 4950000
L28270238 5900000
" />
</g>
<g style="fill:#000000; fill-opacity:0.0; 
stroke:#000000; stroke-width:800000.000000; stroke-opacity:1; 
stroke-linecap:round; stroke-linejoin:round;">
<path d="M41570238 13500000
L41570238 14750000
" />
</g>
<g style="fill:#000000; fill-opacity:0.0; 
stroke:#000000; stroke-width:500000.000000; stroke-opacity:1; 
stroke-linecap:round; stroke-linejoin:round;">
<path d="M28270238 10400000
L27045238 11625000
" />
<path d="M30670238 5100000
L30520238 4950000
" />
</g>
<g style="fill:#000000; fill-opacity:0.0; 
stroke:#000000; stroke-width:800000.000000; stroke-opacity:1; 
stroke-linecap:round; stroke-linejoin:round;">
<path d="M28270238 5900000
L28270238 10400000
" />
</g>
<g style="fill:#000000; fill-opacity:0.0; 
stroke:#000000; stroke-width:500000.000000; stroke-opacity:1; 
stroke-linecap:round; stroke-linejoin:round;">
<path d="M30420238 15400000
L30420238 17000000
" />
<path d="M30120238 17300000
L29820238 17300000
" />
</g>
<g style="fill:#000000; fill-opacity:0.0; 
stroke:#000000; stroke-width:800000.000000; stroke-opacity:1; 
stroke-linecap:round; stroke-linejoin:round;">
<path d="M42020238 13050000
L41570238 13500000
" />
<path d="M38670238 17650000
L30170238 17650000
" />
</g>
<g style="fill:#000000; fill-opacity:0.0; 
stroke:#000000; stroke-width:500000.000000; stroke-opacity:1; 
stroke-linecap:round; stroke-linejoin:round;">
<path d="M30670238 5950000
L30670238 5100000
" />
<path d="M30420238 17000000
L30120238 17300000
" />
<path d="M38170238 9350000
L37470238 8650000
" />
<path d="M37470238 8650000
L32570238 8650000
" />
</g>
<g style="fill:#000000; fill-opacity:0.0; 
stroke:#000000; stroke-width:800000.000000; stroke-opacity:1; 
stroke-linecap:round; stroke-linejoin:round;">
<path d="M38170238 13550000
L38170238 9350000
" />
</g>
<g style="fill:#000000; fill-opacity:0.0; 
stroke:#000000; stroke-width:500000.000000; stroke-opacity:1; 
stroke-linecap:round; stroke-linejoin:round;">
<path d="M34220238 12700000
L35070238 13550000
" />
<path d="M32320238 12700000
L34220238 12700000
" />
<path d="M30420238 12700000
L30420238 11100000
" />
<path d="M30070238 9250000
L30670238 8650000
" />
<path d="M30070238 10750000
L30070238 9250000
" />
<path d="M30420238 11100000
L30070238 10750000
" />
</g>
<g >
</g>
</g>
<g style="fill:#FFFFFF; fill-opacity:0.0; 
stroke:#FFFFFF; stroke-width:500000.000000; stroke-opacity:1; 
stroke-linecap:round; stroke-linejoin:round;">
</g>
<g style="fill:#FFFFFF; fill-opacity:1.0; 
stroke:#FFFFFF; stroke-width:1.000000; stroke-opacity:1; 
stroke-linecap:round; stroke-linejoin:round;">
<circle cx="9010328.000000" cy="12729992.000000" r="200000.000000" /> 
</g>
<g style="fill:#FFFFFF; fill-opacity:1.0; 
stroke:#FFFFFF; stroke-width:21200.000000; stroke-opacity:1; 
stroke-linecap:round; stroke-linejoin:round;">
</g>
<g style="fill:#FFFFFF; fill-opacity:1.0; 
stroke:#FFFFFF; stroke-width:1.000000; stroke-opacity:1; 
stroke-linecap:round; stroke-linejoin:round;">
<circle cx="9010328.000000" cy="8990000.000000" r="200000.000000" /> 
</g>
<g style="fill:#FFFFFF; fill-opacity:1.0; 
stroke:#FFFFFF; stroke-width:21200.000000; stroke-opacity:1; 
stroke-linecap:round; stroke-linejoin:round;">
</g>
<g style="fill:#000000; fill-opacity:1.0; 
stroke:#000000; stroke-width:21200.000000; stroke-opacity:1; 
stroke-linecap:round; stroke-linejoin:round;">
</g> 
</svg>
