<?xml version="1.0" standalone="no"?>
 <!DOCTYPE svg PUBLIC "-//W3C//DTD SVG 1.1//EN" 
 "http://www.w3.org/Graphics/SVG/1.1/DTD/svg11.dtd"> 
<svg
  xmlns:svg="http://www.w3.org/2000/svg"
  xmlns="http://www.w3.org/2000/svg"
  xmlns:xlink="http://www.w3.org/1999/xlink"
  version="1.1"
  width="29.700220cm" height="21.000720cm" viewBox="0 0 297002200 210007200">
<title>SVG Picture created as tp4056-F_Cu.svg date 2022/03/25 05:05:54 </title>
  <desc>Picture generated by PCBNEW </desc>
<g style="fill:#000000; fill-opacity:1.000000;stroke:#000000; stroke-opacity:1.000000;
stroke-linecap:round; stroke-linejoin:round;"
 transform="translate(0 0) scale(1 1)">
</g>
<g style="fill:#000000; fill-opacity:0.0; 
stroke:#000000; stroke-width:0.000000; stroke-opacity:1; 
stroke-linecap:round; stroke-linejoin:round;">
<g >
</g>
<g style="fill:#000000; fill-opacity:0.0; 
stroke:#000000; stroke-width:1.000000; stroke-opacity:1; 
stroke-linecap:round; stroke-linejoin:round;">
</g>
<g style="fill:#000000; fill-opacity:1.0; 
stroke:#000000; stroke-width:1.000000; stroke-opacity:1; 
stroke-linecap:round; stroke-linejoin:round;">
<path style="fill:#000000; fill-opacity:1.0; 
stroke:#000000; stroke-width:1.000000; stroke-opacity:1; 
stroke-linecap:round; stroke-linejoin:round;fill-rule:evenodd;"
d="M 115602199.000000,90099999.000000
115602199.000000,88400001.000000
113902201.000000,88400001.000000
113902201.000000,90099999.000000
Z" /> 
</g>
<g >
</g>
<g style="fill:#000000; fill-opacity:1.0; 
stroke:#000000; stroke-width:1.000000; stroke-opacity:1; 
stroke-linecap:round; stroke-linejoin:round;">
<path style="fill:#000000; fill-opacity:1.0; 
stroke:#000000; stroke-width:1.000000; stroke-opacity:1; 
stroke-linecap:round; stroke-linejoin:round;fill-rule:evenodd;"
d="M 120852200.000000,82987500.000000
120870279.000000,83078387.000000
120921762.000000,83155438.000000
120998813.000000,83206921.000000
121089700.000000,83225000.000000
121589700.000000,83225000.000000
121680587.000000,83206921.000000
121757638.000000,83155438.000000
121809121.000000,83078387.000000
121827200.000000,82987500.000000
121827200.000000,82512500.000000
121809121.000000,82421613.000000
121757638.000000,82344562.000000
121680587.000000,82293079.000000
121589700.000000,82275000.000000
121089700.000000,82275000.000000
120998813.000000,82293079.000000
120921762.000000,82344562.000000
120870279.000000,82421613.000000
120852200.000000,82512500.000000
Z" /> 
<path style="fill:#000000; fill-opacity:1.0; 
stroke:#000000; stroke-width:1.000000; stroke-opacity:1; 
stroke-linecap:round; stroke-linejoin:round;fill-rule:evenodd;"
d="M 122677200.000000,82987500.000000
122695279.000000,83078387.000000
122746762.000000,83155438.000000
122823813.000000,83206921.000000
122914700.000000,83225000.000000
123414700.000000,83225000.000000
123505587.000000,83206921.000000
123582638.000000,83155438.000000
123634121.000000,83078387.000000
123652200.000000,82987500.000000
123652200.000000,82512500.000000
123634121.000000,82421613.000000
123582638.000000,82344562.000000
123505587.000000,82293079.000000
123414700.000000,82275000.000000
122914700.000000,82275000.000000
122823813.000000,82293079.000000
122746762.000000,82344562.000000
122695279.000000,82421613.000000
122677200.000000,82512500.000000
Z" /> 
</g>
<g >
</g>
<g style="fill:#000000; fill-opacity:1.0; 
stroke:#000000; stroke-width:1.000000; stroke-opacity:1; 
stroke-linecap:round; stroke-linejoin:round;">
<path style="fill:#000000; fill-opacity:1.0; 
stroke:#000000; stroke-width:1.000000; stroke-opacity:1; 
stroke-linecap:round; stroke-linejoin:round;fill-rule:evenodd;"
d="M 151052199.000000,77049999.000000
151052199.000000,75350001.000000
149352201.000000,75350001.000000
149352201.000000,77049999.000000
Z" /> 
</g>
<g >
</g>
<g style="fill:#000000; fill-opacity:1.0; 
stroke:#000000; stroke-width:1.000000; stroke-opacity:1; 
stroke-linecap:round; stroke-linejoin:round;">
<path style="fill:#000000; fill-opacity:1.0; 
stroke:#000000; stroke-width:1.000000; stroke-opacity:1; 
stroke-linecap:round; stroke-linejoin:round;fill-rule:evenodd;"
d="M 132802200.000000,76400000.000000
132706529.000000,76419030.000000
132625423.000000,76473223.000000
132571230.000000,76554329.000000
132552200.000000,76650000.000000
132552200.000000,77350000.000000
132571230.000000,77445671.000000
132625423.000000,77526777.000000
132706529.000000,77580970.000000
132802200.000000,77600000.000000
133702200.000000,77600000.000000
133797871.000000,77580970.000000
133878977.000000,77526777.000000
133933170.000000,77445671.000000
133952200.000000,77350000.000000
133952200.000000,76650000.000000
133933170.000000,76554329.000000
133878977.000000,76473223.000000
133797871.000000,76419030.000000
133702200.000000,76400000.000000
Z" /> 
<path style="fill:#000000; fill-opacity:1.0; 
stroke:#000000; stroke-width:1.000000; stroke-opacity:1; 
stroke-linecap:round; stroke-linejoin:round;fill-rule:evenodd;"
d="M 132802200.000000,78400000.000000
132706529.000000,78419030.000000
132625423.000000,78473223.000000
132571230.000000,78554329.000000
132552200.000000,78650000.000000
132552200.000000,79350000.000000
132571230.000000,79445671.000000
132625423.000000,79526777.000000
132706529.000000,79580970.000000
132802200.000000,79600000.000000
133702200.000000,79600000.000000
133797871.000000,79580970.000000
133878977.000000,79526777.000000
133933170.000000,79445671.000000
133952200.000000,79350000.000000
133952200.000000,78650000.000000
133933170.000000,78554329.000000
133878977.000000,78473223.000000
133797871.000000,78419030.000000
133702200.000000,78400000.000000
Z" /> 
</g>
<g >
</g>
<g style="fill:#000000; fill-opacity:1.0; 
stroke:#000000; stroke-width:1.000000; stroke-opacity:1; 
stroke-linecap:round; stroke-linejoin:round;">
<path style="fill:#000000; fill-opacity:1.0; 
stroke:#000000; stroke-width:1.000000; stroke-opacity:1; 
stroke-linecap:round; stroke-linejoin:round;fill-rule:evenodd;"
d="M 140557200.000000,85750000.000000
140614603.000000,85738582.000000
140663266.000000,85706066.000000
140695782.000000,85657403.000000
140707200.000000,85600000.000000
140707200.000000,83950000.000000
140695782.000000,83892597.000000
140663266.000000,83843934.000000
140614603.000000,83811418.000000
140557200.000000,83800000.000000
140257200.000000,83800000.000000
140199797.000000,83811418.000000
140151134.000000,83843934.000000
140118618.000000,83892597.000000
140107200.000000,83950000.000000
140107200.000000,85600000.000000
140118618.000000,85657403.000000
140151134.000000,85706066.000000
140199797.000000,85738582.000000
140257200.000000,85750000.000000
Z" /> 
<path style="fill:#000000; fill-opacity:1.0; 
stroke:#000000; stroke-width:1.000000; stroke-opacity:1; 
stroke-linecap:round; stroke-linejoin:round;fill-rule:evenodd;"
d="M 139287200.000000,85750000.000000
139344603.000000,85738582.000000
139393266.000000,85706066.000000
139425782.000000,85657403.000000
139437200.000000,85600000.000000
139437200.000000,83950000.000000
139425782.000000,83892597.000000
139393266.000000,83843934.000000
139344603.000000,83811418.000000
139287200.000000,83800000.000000
138987200.000000,83800000.000000
138929797.000000,83811418.000000
138881134.000000,83843934.000000
138848618.000000,83892597.000000
138837200.000000,83950000.000000
138837200.000000,85600000.000000
138848618.000000,85657403.000000
138881134.000000,85706066.000000
138929797.000000,85738582.000000
138987200.000000,85750000.000000
Z" /> 
<path style="fill:#000000; fill-opacity:1.0; 
stroke:#000000; stroke-width:1.000000; stroke-opacity:1; 
stroke-linecap:round; stroke-linejoin:round;fill-rule:evenodd;"
d="M 138017200.000000,85750000.000000
138074603.000000,85738582.000000
138123266.000000,85706066.000000
138155782.000000,85657403.000000
138167200.000000,85600000.000000
138167200.000000,83950000.000000
138155782.000000,83892597.000000
138123266.000000,83843934.000000
138074603.000000,83811418.000000
138017200.000000,83800000.000000
137717200.000000,83800000.000000
137659797.000000,83811418.000000
137611134.000000,83843934.000000
137578618.000000,83892597.000000
137567200.000000,83950000.000000
137567200.000000,85600000.000000
137578618.000000,85657403.000000
137611134.000000,85706066.000000
137659797.000000,85738582.000000
137717200.000000,85750000.000000
Z" /> 
<path style="fill:#000000; fill-opacity:1.0; 
stroke:#000000; stroke-width:1.000000; stroke-opacity:1; 
stroke-linecap:round; stroke-linejoin:round;fill-rule:evenodd;"
d="M 136747200.000000,85750000.000000
136804603.000000,85738582.000000
136853266.000000,85706066.000000
136885782.000000,85657403.000000
136897200.000000,85600000.000000
136897200.000000,83950000.000000
136885782.000000,83892597.000000
136853266.000000,83843934.000000
136804603.000000,83811418.000000
136747200.000000,83800000.000000
136447200.000000,83800000.000000
136389797.000000,83811418.000000
136341134.000000,83843934.000000
136308618.000000,83892597.000000
136297200.000000,83950000.000000
136297200.000000,85600000.000000
136308618.000000,85657403.000000
136341134.000000,85706066.000000
136389797.000000,85738582.000000
136447200.000000,85750000.000000
Z" /> 
<path style="fill:#000000; fill-opacity:1.0; 
stroke:#000000; stroke-width:1.000000; stroke-opacity:1; 
stroke-linecap:round; stroke-linejoin:round;fill-rule:evenodd;"
d="M 136747200.000000,80800000.000000
136804603.000000,80788582.000000
136853266.000000,80756066.000000
136885782.000000,80707403.000000
136897200.000000,80650000.000000
136897200.000000,79000000.000000
136885782.000000,78942597.000000
136853266.000000,78893934.000000
136804603.000000,78861418.000000
136747200.000000,78850000.000000
136447200.000000,78850000.000000
136389797.000000,78861418.000000
136341134.000000,78893934.000000
136308618.000000,78942597.000000
136297200.000000,79000000.000000
136297200.000000,80650000.000000
136308618.000000,80707403.000000
136341134.000000,80756066.000000
136389797.000000,80788582.000000
136447200.000000,80800000.000000
Z" /> 
<path style="fill:#000000; fill-opacity:1.0; 
stroke:#000000; stroke-width:1.000000; stroke-opacity:1; 
stroke-linecap:round; stroke-linejoin:round;fill-rule:evenodd;"
d="M 138017200.000000,80800000.000000
138074603.000000,80788582.000000
138123266.000000,80756066.000000
138155782.000000,80707403.000000
138167200.000000,80650000.000000
138167200.000000,79000000.000000
138155782.000000,78942597.000000
138123266.000000,78893934.000000
138074603.000000,78861418.000000
138017200.000000,78850000.000000
137717200.000000,78850000.000000
137659797.000000,78861418.000000
137611134.000000,78893934.000000
137578618.000000,78942597.000000
137567200.000000,79000000.000000
137567200.000000,80650000.000000
137578618.000000,80707403.000000
137611134.000000,80756066.000000
137659797.000000,80788582.000000
137717200.000000,80800000.000000
Z" /> 
<path style="fill:#000000; fill-opacity:1.0; 
stroke:#000000; stroke-width:1.000000; stroke-opacity:1; 
stroke-linecap:round; stroke-linejoin:round;fill-rule:evenodd;"
d="M 139287200.000000,80800000.000000
139344603.000000,80788582.000000
139393266.000000,80756066.000000
139425782.000000,80707403.000000
139437200.000000,80650000.000000
139437200.000000,79000000.000000
139425782.000000,78942597.000000
139393266.000000,78893934.000000
139344603.000000,78861418.000000
139287200.000000,78850000.000000
138987200.000000,78850000.000000
138929797.000000,78861418.000000
138881134.000000,78893934.000000
138848618.000000,78942597.000000
138837200.000000,79000000.000000
138837200.000000,80650000.000000
138848618.000000,80707403.000000
138881134.000000,80756066.000000
138929797.000000,80788582.000000
138987200.000000,80800000.000000
Z" /> 
<path style="fill:#000000; fill-opacity:1.0; 
stroke:#000000; stroke-width:1.000000; stroke-opacity:1; 
stroke-linecap:round; stroke-linejoin:round;fill-rule:evenodd;"
d="M 140557200.000000,80800000.000000
140614603.000000,80788582.000000
140663266.000000,80756066.000000
140695782.000000,80707403.000000
140707200.000000,80650000.000000
140707200.000000,79000000.000000
140695782.000000,78942597.000000
140663266.000000,78893934.000000
140614603.000000,78861418.000000
140557200.000000,78850000.000000
140257200.000000,78850000.000000
140199797.000000,78861418.000000
140151134.000000,78893934.000000
140118618.000000,78942597.000000
140107200.000000,79000000.000000
140107200.000000,80650000.000000
140118618.000000,80707403.000000
140151134.000000,80756066.000000
140199797.000000,80788582.000000
140257200.000000,80800000.000000
Z" /> 
<path style="fill:#000000; fill-opacity:1.0; 
stroke:#000000; stroke-width:1.000000; stroke-opacity:1; 
stroke-linecap:round; stroke-linejoin:round;fill-rule:evenodd;"
d="M 137002201.000000,83444999.000000
140002199.000000,83444999.000000
140002199.000000,81155001.000000
137002201.000000,81155001.000000
Z" /> 
</g>
<g >
</g>
<g style="fill:#000000; fill-opacity:1.0; 
stroke:#000000; stroke-width:1.000000; stroke-opacity:1; 
stroke-linecap:round; stroke-linejoin:round;">
<path style="fill:#000000; fill-opacity:1.0; 
stroke:#000000; stroke-width:1.000000; stroke-opacity:1; 
stroke-linecap:round; stroke-linejoin:round;fill-rule:evenodd;"
d="M 141652200.000000,75512500.000000
141634121.000000,75421613.000000
141582638.000000,75344562.000000
141505587.000000,75293079.000000
141414700.000000,75275000.000000
140914700.000000,75275000.000000
140823813.000000,75293079.000000
140746762.000000,75344562.000000
140695279.000000,75421613.000000
140677200.000000,75512500.000000
140677200.000000,75987500.000000
140695279.000000,76078387.000000
140746762.000000,76155438.000000
140823813.000000,76206921.000000
140914700.000000,76225000.000000
141414700.000000,76225000.000000
141505587.000000,76206921.000000
141582638.000000,76155438.000000
141634121.000000,76078387.000000
141652200.000000,75987500.000000
Z" /> 
<path style="fill:#000000; fill-opacity:1.0; 
stroke:#000000; stroke-width:1.000000; stroke-opacity:1; 
stroke-linecap:round; stroke-linejoin:round;fill-rule:evenodd;"
d="M 139827200.000000,75512500.000000
139809121.000000,75421613.000000
139757638.000000,75344562.000000
139680587.000000,75293079.000000
139589700.000000,75275000.000000
139089700.000000,75275000.000000
138998813.000000,75293079.000000
138921762.000000,75344562.000000
138870279.000000,75421613.000000
138852200.000000,75512500.000000
138852200.000000,75987500.000000
138870279.000000,76078387.000000
138921762.000000,76155438.000000
138998813.000000,76206921.000000
139089700.000000,76225000.000000
139589700.000000,76225000.000000
139680587.000000,76206921.000000
139757638.000000,76155438.000000
139809121.000000,76078387.000000
139827200.000000,75987500.000000
Z" /> 
</g>
<g >
</g>
<g style="fill:#000000; fill-opacity:1.0; 
stroke:#000000; stroke-width:1.000000; stroke-opacity:1; 
stroke-linecap:round; stroke-linejoin:round;">
<path style="fill:#000000; fill-opacity:1.0; 
stroke:#000000; stroke-width:1.000000; stroke-opacity:1; 
stroke-linecap:round; stroke-linejoin:round;fill-rule:evenodd;"
d="M 115352199.000000,85849999.000000
115352199.000000,84150001.000000
113652201.000000,84150001.000000
113652201.000000,85849999.000000
Z" /> 
</g>
<g >
</g>
<g style="fill:#000000; fill-opacity:1.0; 
stroke:#000000; stroke-width:1.000000; stroke-opacity:1; 
stroke-linecap:round; stroke-linejoin:round;">
<path style="fill:#000000; fill-opacity:1.0; 
stroke:#000000; stroke-width:1.000000; stroke-opacity:1; 
stroke-linecap:round; stroke-linejoin:round;fill-rule:evenodd;"
d="M 133952200.000000,80837500.000000
133856529.000000,80856530.000000
133775423.000000,80910723.000000
133721230.000000,80991829.000000
133702200.000000,81087500.000000
133702200.000000,81762500.000000
133721230.000000,81858171.000000
133775423.000000,81939277.000000
133856529.000000,81993470.000000
133952200.000000,82012500.000000
134902200.000000,82012500.000000
134997871.000000,81993470.000000
135078977.000000,81939277.000000
135133170.000000,81858171.000000
135152200.000000,81762500.000000
135152200.000000,81087500.000000
135133170.000000,80991829.000000
135078977.000000,80910723.000000
134997871.000000,80856530.000000
134902200.000000,80837500.000000
Z" /> 
<path style="fill:#000000; fill-opacity:1.0; 
stroke:#000000; stroke-width:1.000000; stroke-opacity:1; 
stroke-linecap:round; stroke-linejoin:round;fill-rule:evenodd;"
d="M 133952200.000000,82912500.000000
133856529.000000,82931530.000000
133775423.000000,82985723.000000
133721230.000000,83066829.000000
133702200.000000,83162500.000000
133702200.000000,83837500.000000
133721230.000000,83933171.000000
133775423.000000,84014277.000000
133856529.000000,84068470.000000
133952200.000000,84087500.000000
134902200.000000,84087500.000000
134997871.000000,84068470.000000
135078977.000000,84014277.000000
135133170.000000,83933171.000000
135152200.000000,83837500.000000
135152200.000000,83162500.000000
135133170.000000,83066829.000000
135078977.000000,82985723.000000
134997871.000000,82931530.000000
134902200.000000,82912500.000000
Z" /> 
</g>
<g >
</g>
<g style="fill:#000000; fill-opacity:1.0; 
stroke:#000000; stroke-width:1.000000; stroke-opacity:1; 
stroke-linecap:round; stroke-linejoin:round;">
<path style="fill:#000000; fill-opacity:1.0; 
stroke:#000000; stroke-width:1.000000; stroke-opacity:1; 
stroke-linecap:round; stroke-linejoin:round;fill-rule:evenodd;"
d="M 143152200.000000,76250000.000000
143171230.000000,76345671.000000
143225423.000000,76426777.000000
143306529.000000,76480970.000000
143402200.000000,76500000.000000
144052200.000000,76500000.000000
144147871.000000,76480970.000000
144228977.000000,76426777.000000
144283170.000000,76345671.000000
144302200.000000,76250000.000000
144302200.000000,75350000.000000
144283170.000000,75254329.000000
144228977.000000,75173223.000000
144147871.000000,75119030.000000
144052200.000000,75100000.000000
143402200.000000,75100000.000000
143306529.000000,75119030.000000
143225423.000000,75173223.000000
143171230.000000,75254329.000000
143152200.000000,75350000.000000
Z" /> 
<path style="fill:#000000; fill-opacity:1.0; 
stroke:#000000; stroke-width:1.000000; stroke-opacity:1; 
stroke-linecap:round; stroke-linejoin:round;fill-rule:evenodd;"
d="M 145202200.000000,76250000.000000
145221230.000000,76345671.000000
145275423.000000,76426777.000000
145356529.000000,76480970.000000
145452200.000000,76500000.000000
146102200.000000,76500000.000000
146197871.000000,76480970.000000
146278977.000000,76426777.000000
146333170.000000,76345671.000000
146352200.000000,76250000.000000
146352200.000000,75350000.000000
146333170.000000,75254329.000000
146278977.000000,75173223.000000
146197871.000000,75119030.000000
146102200.000000,75100000.000000
145452200.000000,75100000.000000
145356529.000000,75119030.000000
145275423.000000,75173223.000000
145221230.000000,75254329.000000
145202200.000000,75350000.000000
Z" /> 
</g>
<g >
</g>
<g style="fill:#000000; fill-opacity:1.0; 
stroke:#000000; stroke-width:1.000000; stroke-opacity:1; 
stroke-linecap:round; stroke-linejoin:round;">
<path style="fill:#000000; fill-opacity:1.0; 
stroke:#000000; stroke-width:1.000000; stroke-opacity:1; 
stroke-linecap:round; stroke-linejoin:round;fill-rule:evenodd;"
d="M 144164700.000000,87275000.000000
144145670.000000,87179329.000000
144091477.000000,87098223.000000
144010371.000000,87044030.000000
143914700.000000,87025000.000000
143239700.000000,87025000.000000
143144029.000000,87044030.000000
143062923.000000,87098223.000000
143008730.000000,87179329.000000
142989700.000000,87275000.000000
142989700.000000,88225000.000000
143008730.000000,88320671.000000
143062923.000000,88401777.000000
143144029.000000,88455970.000000
143239700.000000,88475000.000000
143914700.000000,88475000.000000
144010371.000000,88455970.000000
144091477.000000,88401777.000000
144145670.000000,88320671.000000
144164700.000000,88225000.000000
Z" /> 
<path style="fill:#000000; fill-opacity:1.0; 
stroke:#000000; stroke-width:1.000000; stroke-opacity:1; 
stroke-linecap:round; stroke-linejoin:round;fill-rule:evenodd;"
d="M 142089700.000000,87275000.000000
142070670.000000,87179329.000000
142016477.000000,87098223.000000
141935371.000000,87044030.000000
141839700.000000,87025000.000000
141164700.000000,87025000.000000
141069029.000000,87044030.000000
140987923.000000,87098223.000000
140933730.000000,87179329.000000
140914700.000000,87275000.000000
140914700.000000,88225000.000000
140933730.000000,88320671.000000
140987923.000000,88401777.000000
141069029.000000,88455970.000000
141164700.000000,88475000.000000
141839700.000000,88475000.000000
141935371.000000,88455970.000000
142016477.000000,88401777.000000
142070670.000000,88320671.000000
142089700.000000,88225000.000000
Z" /> 
</g>
<g >
</g>
<g style="fill:#000000; fill-opacity:1.0; 
stroke:#000000; stroke-width:1.000000; stroke-opacity:1; 
stroke-linecap:round; stroke-linejoin:round;">
<path style="fill:#000000; fill-opacity:1.0; 
stroke:#000000; stroke-width:1.000000; stroke-opacity:1; 
stroke-linecap:round; stroke-linejoin:round;fill-rule:evenodd;"
d="M 142402200.000000,77262500.000000
142384121.000000,77171613.000000
142332638.000000,77094562.000000
142255587.000000,77043079.000000
142164700.000000,77025000.000000
141664700.000000,77025000.000000
141573813.000000,77043079.000000
141496762.000000,77094562.000000
141445279.000000,77171613.000000
141427200.000000,77262500.000000
141427200.000000,77737500.000000
141445279.000000,77828387.000000
141496762.000000,77905438.000000
141573813.000000,77956921.000000
141664700.000000,77975000.000000
142164700.000000,77975000.000000
142255587.000000,77956921.000000
142332638.000000,77905438.000000
142384121.000000,77828387.000000
142402200.000000,77737500.000000
Z" /> 
<path style="fill:#000000; fill-opacity:1.0; 
stroke:#000000; stroke-width:1.000000; stroke-opacity:1; 
stroke-linecap:round; stroke-linejoin:round;fill-rule:evenodd;"
d="M 140577200.000000,77262500.000000
140559121.000000,77171613.000000
140507638.000000,77094562.000000
140430587.000000,77043079.000000
140339700.000000,77025000.000000
139839700.000000,77025000.000000
139748813.000000,77043079.000000
139671762.000000,77094562.000000
139620279.000000,77171613.000000
139602200.000000,77262500.000000
139602200.000000,77737500.000000
139620279.000000,77828387.000000
139671762.000000,77905438.000000
139748813.000000,77956921.000000
139839700.000000,77975000.000000
140339700.000000,77975000.000000
140430587.000000,77956921.000000
140507638.000000,77905438.000000
140559121.000000,77828387.000000
140577200.000000,77737500.000000
Z" /> 
</g>
<g >
</g>
<g style="fill:#000000; fill-opacity:1.0; 
stroke:#000000; stroke-width:1.000000; stroke-opacity:1; 
stroke-linecap:round; stroke-linejoin:round;">
<path style="fill:#000000; fill-opacity:1.0; 
stroke:#000000; stroke-width:1.000000; stroke-opacity:1; 
stroke-linecap:round; stroke-linejoin:round;fill-rule:evenodd;"
d="M 115102199.000000,80599999.000000
115102199.000000,78900001.000000
113402201.000000,78900001.000000
113402201.000000,80599999.000000
Z" /> 
</g>
<g >
</g>
<g style="fill:#000000; fill-opacity:1.0; 
stroke:#000000; stroke-width:1.000000; stroke-opacity:1; 
stroke-linecap:round; stroke-linejoin:round;">
<path style="fill:#000000; fill-opacity:1.0; 
stroke:#000000; stroke-width:1.000000; stroke-opacity:1; 
stroke-linecap:round; stroke-linejoin:round;fill-rule:evenodd;"
d="M 127127201.000000,88129999.000000
127777199.000000,88129999.000000
127777199.000000,86570001.000000
127127201.000000,86570001.000000
Z" /> 
<path style="fill:#000000; fill-opacity:1.0; 
stroke:#000000; stroke-width:1.000000; stroke-opacity:1; 
stroke-linecap:round; stroke-linejoin:round;fill-rule:evenodd;"
d="M 126177201.000000,88129999.000000
126827199.000000,88129999.000000
126827199.000000,86570001.000000
126177201.000000,86570001.000000
Z" /> 
<path style="fill:#000000; fill-opacity:1.0; 
stroke:#000000; stroke-width:1.000000; stroke-opacity:1; 
stroke-linecap:round; stroke-linejoin:round;fill-rule:evenodd;"
d="M 125227201.000000,88129999.000000
125877199.000000,88129999.000000
125877199.000000,86570001.000000
125227201.000000,86570001.000000
Z" /> 
<path style="fill:#000000; fill-opacity:1.0; 
stroke:#000000; stroke-width:1.000000; stroke-opacity:1; 
stroke-linecap:round; stroke-linejoin:round;fill-rule:evenodd;"
d="M 125227201.000000,85429999.000000
125877199.000000,85429999.000000
125877199.000000,83870001.000000
125227201.000000,83870001.000000
Z" /> 
<path style="fill:#000000; fill-opacity:1.0; 
stroke:#000000; stroke-width:1.000000; stroke-opacity:1; 
stroke-linecap:round; stroke-linejoin:round;fill-rule:evenodd;"
d="M 126177201.000000,85429999.000000
126827199.000000,85429999.000000
126827199.000000,83870001.000000
126177201.000000,83870001.000000
Z" /> 
<path style="fill:#000000; fill-opacity:1.0; 
stroke:#000000; stroke-width:1.000000; stroke-opacity:1; 
stroke-linecap:round; stroke-linejoin:round;fill-rule:evenodd;"
d="M 127127201.000000,85429999.000000
127777199.000000,85429999.000000
127777199.000000,83870001.000000
127127201.000000,83870001.000000
Z" /> 
</g>
<g >
</g>
<g style="fill:#000000; fill-opacity:1.0; 
stroke:#000000; stroke-width:1.000000; stroke-opacity:1; 
stroke-linecap:round; stroke-linejoin:round;">
<path style="fill:#000000; fill-opacity:1.0; 
stroke:#000000; stroke-width:1.000000; stroke-opacity:1; 
stroke-linecap:round; stroke-linejoin:round;fill-rule:evenodd;"
d="M 119052200.000000,86125000.000000
119071230.000000,86220671.000000
119125423.000000,86301777.000000
119206529.000000,86355970.000000
119302200.000000,86375000.000000
120102200.000000,86375000.000000
120197871.000000,86355970.000000
120278977.000000,86301777.000000
120333170.000000,86220671.000000
120352200.000000,86125000.000000
120352200.000000,84875000.000000
120333170.000000,84779329.000000
120278977.000000,84698223.000000
120197871.000000,84644030.000000
120102200.000000,84625000.000000
119302200.000000,84625000.000000
119206529.000000,84644030.000000
119125423.000000,84698223.000000
119071230.000000,84779329.000000
119052200.000000,84875000.000000
Z" /> 
<path style="fill:#000000; fill-opacity:1.0; 
stroke:#000000; stroke-width:1.000000; stroke-opacity:1; 
stroke-linecap:round; stroke-linejoin:round;fill-rule:evenodd;"
d="M 122152200.000000,86125000.000000
122171230.000000,86220671.000000
122225423.000000,86301777.000000
122306529.000000,86355970.000000
122402200.000000,86375000.000000
123202200.000000,86375000.000000
123297871.000000,86355970.000000
123378977.000000,86301777.000000
123433170.000000,86220671.000000
123452200.000000,86125000.000000
123452200.000000,84875000.000000
123433170.000000,84779329.000000
123378977.000000,84698223.000000
123297871.000000,84644030.000000
123202200.000000,84625000.000000
122402200.000000,84625000.000000
122306529.000000,84644030.000000
122225423.000000,84698223.000000
122171230.000000,84779329.000000
122152200.000000,84875000.000000
Z" /> 
</g>
<g >
</g>
<g style="fill:#000000; fill-opacity:1.0; 
stroke:#000000; stroke-width:1.000000; stroke-opacity:1; 
stroke-linecap:round; stroke-linejoin:round;">
<path style="fill:#000000; fill-opacity:1.0; 
stroke:#000000; stroke-width:1.000000; stroke-opacity:1; 
stroke-linecap:round; stroke-linejoin:round;fill-rule:evenodd;"
d="M 131527200.000000,80912500.000000
131431529.000000,80931530.000000
131350423.000000,80985723.000000
131296230.000000,81066829.000000
131277200.000000,81162500.000000
131277200.000000,81837500.000000
131296230.000000,81933171.000000
131350423.000000,82014277.000000
131431529.000000,82068470.000000
131527200.000000,82087500.000000
132477200.000000,82087500.000000
132572871.000000,82068470.000000
132653977.000000,82014277.000000
132708170.000000,81933171.000000
132727200.000000,81837500.000000
132727200.000000,81162500.000000
132708170.000000,81066829.000000
132653977.000000,80985723.000000
132572871.000000,80931530.000000
132477200.000000,80912500.000000
Z" /> 
<path style="fill:#000000; fill-opacity:1.0; 
stroke:#000000; stroke-width:1.000000; stroke-opacity:1; 
stroke-linecap:round; stroke-linejoin:round;fill-rule:evenodd;"
d="M 131527200.000000,82987500.000000
131431529.000000,83006530.000000
131350423.000000,83060723.000000
131296230.000000,83141829.000000
131277200.000000,83237500.000000
131277200.000000,83912500.000000
131296230.000000,84008171.000000
131350423.000000,84089277.000000
131431529.000000,84143470.000000
131527200.000000,84162500.000000
132477200.000000,84162500.000000
132572871.000000,84143470.000000
132653977.000000,84089277.000000
132708170.000000,84008171.000000
132727200.000000,83912500.000000
132727200.000000,83237500.000000
132708170.000000,83141829.000000
132653977.000000,83060723.000000
132572871.000000,83006530.000000
132477200.000000,82987500.000000
Z" /> 
</g>
<g >
</g>
<g style="fill:#000000; fill-opacity:1.0; 
stroke:#000000; stroke-width:1.000000; stroke-opacity:1; 
stroke-linecap:round; stroke-linejoin:round;">
<circle cx="148862110.000000" cy="84679992.000000" r="225000.000000" /> 
</g>
<g style="fill:#000000; fill-opacity:1.0; 
stroke:#000000; stroke-width:21200.000000; stroke-opacity:1; 
stroke-linecap:round; stroke-linejoin:round;">
</g>
<g style="fill:#000000; fill-opacity:1.0; 
stroke:#000000; stroke-width:1.000000; stroke-opacity:1; 
stroke-linecap:round; stroke-linejoin:round;">
<circle cx="148862110.000000" cy="80940000.000000" r="225000.000000" /> 
</g>
<g style="fill:#000000; fill-opacity:1.0; 
stroke:#000000; stroke-width:21200.000000; stroke-opacity:1; 
stroke-linecap:round; stroke-linejoin:round;">
</g>
<g style="fill:#000000; fill-opacity:1.0; 
stroke:#000000; stroke-width:1.000000; stroke-opacity:1; 
stroke-linecap:round; stroke-linejoin:round;">
<path style="fill:#000000; fill-opacity:1.0; 
stroke:#000000; stroke-width:1.000000; stroke-opacity:1; 
stroke-linecap:round; stroke-linejoin:round;fill-rule:evenodd;"
d="M 148979699.000000,81275001.000000
144979701.000000,81275001.000000
144979701.000000,81724999.000000
148979699.000000,81724999.000000
Z" /> 
<path style="fill:#000000; fill-opacity:1.0; 
stroke:#000000; stroke-width:1.000000; stroke-opacity:1; 
stroke-linecap:round; stroke-linejoin:round;fill-rule:evenodd;"
d="M 148979699.000000,81925001.000000
144979701.000000,81925001.000000
144979701.000000,82374999.000000
148979699.000000,82374999.000000
Z" /> 
<path style="fill:#000000; fill-opacity:1.0; 
stroke:#000000; stroke-width:1.000000; stroke-opacity:1; 
stroke-linecap:round; stroke-linejoin:round;fill-rule:evenodd;"
d="M 148979699.000000,82575001.000000
144979701.000000,82575001.000000
144979701.000000,83024999.000000
148979699.000000,83024999.000000
Z" /> 
<path style="fill:#000000; fill-opacity:1.0; 
stroke:#000000; stroke-width:1.000000; stroke-opacity:1; 
stroke-linecap:round; stroke-linejoin:round;fill-rule:evenodd;"
d="M 148979699.000000,83225001.000000
144979701.000000,83225001.000000
144979701.000000,83674999.000000
148979699.000000,83674999.000000
Z" /> 
<path style="fill:#000000; fill-opacity:1.0; 
stroke:#000000; stroke-width:1.000000; stroke-opacity:1; 
stroke-linecap:round; stroke-linejoin:round;fill-rule:evenodd;"
d="M 148979699.000000,83875001.000000
144979701.000000,83875001.000000
144979701.000000,84324999.000000
148979699.000000,84324999.000000
Z" /> 
<path style="fill:#000000; fill-opacity:1.0; 
stroke:#000000; stroke-width:1.000000; stroke-opacity:1; 
stroke-linecap:round; stroke-linejoin:round;fill-rule:evenodd;"
d="M 151599699.000000,78275001.000000
150299701.000000,78275001.000000
150299701.000000,80574999.000000
151599699.000000,80574999.000000
Z" /> 
<path style="fill:#000000; fill-opacity:1.0; 
stroke:#000000; stroke-width:1.000000; stroke-opacity:1; 
stroke-linecap:round; stroke-linejoin:round;fill-rule:evenodd;"
d="M 151899699.000000,83850001.000000
149999701.000000,83850001.000000
149999701.000000,84849999.000000
151899699.000000,84849999.000000
Z" /> 
<path style="fill:#000000; fill-opacity:1.0; 
stroke:#000000; stroke-width:1.000000; stroke-opacity:1; 
stroke-linecap:round; stroke-linejoin:round;fill-rule:evenodd;"
d="M 149144699.000000,85077501.000000
147594701.000000,85077501.000000
147594701.000000,86502499.000000
149144699.000000,86502499.000000
Z" /> 
<path style="fill:#000000; fill-opacity:1.0; 
stroke:#000000; stroke-width:1.000000; stroke-opacity:1; 
stroke-linecap:round; stroke-linejoin:round;fill-rule:evenodd;"
d="M 149144699.000000,79097501.000000
147594701.000000,79097501.000000
147594701.000000,80522499.000000
149144699.000000,80522499.000000
Z" /> 
<path style="fill:#000000; fill-opacity:1.0; 
stroke:#000000; stroke-width:1.000000; stroke-opacity:1; 
stroke-linecap:round; stroke-linejoin:round;fill-rule:evenodd;"
d="M 151899699.000000,80750001.000000
149999701.000000,80750001.000000
149999701.000000,82549999.000000
151899699.000000,82549999.000000
Z" /> 
<path style="fill:#000000; fill-opacity:1.0; 
stroke:#000000; stroke-width:1.000000; stroke-opacity:1; 
stroke-linecap:round; stroke-linejoin:round;fill-rule:evenodd;"
d="M 151599699.000000,85025001.000000
150299701.000000,85025001.000000
150299701.000000,87324999.000000
151599699.000000,87324999.000000
Z" /> 
</g>
<g >
</g>
<g style="fill:#000000; fill-opacity:1.0; 
stroke:#000000; stroke-width:1.000000; stroke-opacity:1; 
stroke-linecap:round; stroke-linejoin:round;">
<path style="fill:#000000; fill-opacity:1.0; 
stroke:#000000; stroke-width:1.000000; stroke-opacity:1; 
stroke-linecap:round; stroke-linejoin:round;fill-rule:evenodd;"
d="M 150652199.000000,90349999.000000
150652199.000000,88650001.000000
148952201.000000,88650001.000000
148952201.000000,90349999.000000
Z" /> 
</g>
<g >
</g>
<g style="fill:#000000; fill-opacity:1.0; 
stroke:#000000; stroke-width:1.000000; stroke-opacity:1; 
stroke-linecap:round; stroke-linejoin:round;">
<path style="fill:#000000; fill-opacity:1.0; 
stroke:#000000; stroke-width:1.000000; stroke-opacity:1; 
stroke-linecap:round; stroke-linejoin:round;fill-rule:evenodd;"
d="M 115102199.000000,75849999.000000
115102199.000000,74150001.000000
113402201.000000,74150001.000000
113402201.000000,75849999.000000
Z" /> 
</g>
<g >
</g>
<g style="fill:#000000; fill-opacity:1.0; 
stroke:#000000; stroke-width:1.000000; stroke-opacity:1; 
stroke-linecap:round; stroke-linejoin:round;">
<path style="fill:#000000; fill-opacity:1.0; 
stroke:#000000; stroke-width:1.000000; stroke-opacity:1; 
stroke-linecap:round; stroke-linejoin:round;fill-rule:evenodd;"
d="M 143152200.000000,79200000.000000
143171230.000000,79295671.000000
143225423.000000,79376777.000000
143306529.000000,79430970.000000
143402200.000000,79450000.000000
144052200.000000,79450000.000000
144147871.000000,79430970.000000
144228977.000000,79376777.000000
144283170.000000,79295671.000000
144302200.000000,79200000.000000
144302200.000000,78300000.000000
144283170.000000,78204329.000000
144228977.000000,78123223.000000
144147871.000000,78069030.000000
144052200.000000,78050000.000000
143402200.000000,78050000.000000
143306529.000000,78069030.000000
143225423.000000,78123223.000000
143171230.000000,78204329.000000
143152200.000000,78300000.000000
Z" /> 
<path style="fill:#000000; fill-opacity:1.0; 
stroke:#000000; stroke-width:1.000000; stroke-opacity:1; 
stroke-linecap:round; stroke-linejoin:round;fill-rule:evenodd;"
d="M 145202200.000000,79200000.000000
145221230.000000,79295671.000000
145275423.000000,79376777.000000
145356529.000000,79430970.000000
145452200.000000,79450000.000000
146102200.000000,79450000.000000
146197871.000000,79430970.000000
146278977.000000,79376777.000000
146333170.000000,79295671.000000
146352200.000000,79200000.000000
146352200.000000,78300000.000000
146333170.000000,78204329.000000
146278977.000000,78123223.000000
146197871.000000,78069030.000000
146102200.000000,78050000.000000
145452200.000000,78050000.000000
145356529.000000,78069030.000000
145275423.000000,78123223.000000
145221230.000000,78204329.000000
145202200.000000,78300000.000000
Z" /> 
</g>
<g >
</g>
<g style="fill:#000000; fill-opacity:1.0; 
stroke:#000000; stroke-width:1.000000; stroke-opacity:1; 
stroke-linecap:round; stroke-linejoin:round;">
<path style="fill:#000000; fill-opacity:1.0; 
stroke:#000000; stroke-width:1.000000; stroke-opacity:1; 
stroke-linecap:round; stroke-linejoin:round;fill-rule:evenodd;"
d="M 138602200.000000,88050000.000000
138583170.000000,87954329.000000
138528977.000000,87873223.000000
138447871.000000,87819030.000000
138352200.000000,87800000.000000
137652200.000000,87800000.000000
137556529.000000,87819030.000000
137475423.000000,87873223.000000
137421230.000000,87954329.000000
137402200.000000,88050000.000000
137402200.000000,88950000.000000
137421230.000000,89045671.000000
137475423.000000,89126777.000000
137556529.000000,89180970.000000
137652200.000000,89200000.000000
138352200.000000,89200000.000000
138447871.000000,89180970.000000
138528977.000000,89126777.000000
138583170.000000,89045671.000000
138602200.000000,88950000.000000
Z" /> 
<path style="fill:#000000; fill-opacity:1.0; 
stroke:#000000; stroke-width:1.000000; stroke-opacity:1; 
stroke-linecap:round; stroke-linejoin:round;fill-rule:evenodd;"
d="M 136602200.000000,88050000.000000
136583170.000000,87954329.000000
136528977.000000,87873223.000000
136447871.000000,87819030.000000
136352200.000000,87800000.000000
135652200.000000,87800000.000000
135556529.000000,87819030.000000
135475423.000000,87873223.000000
135421230.000000,87954329.000000
135402200.000000,88050000.000000
135402200.000000,88950000.000000
135421230.000000,89045671.000000
135475423.000000,89126777.000000
135556529.000000,89180970.000000
135652200.000000,89200000.000000
136352200.000000,89200000.000000
136447871.000000,89180970.000000
136528977.000000,89126777.000000
136583170.000000,89045671.000000
136602200.000000,88950000.000000
Z" /> 
</g>
<g >
</g>
<g style="fill:#000000; fill-opacity:1.0; 
stroke:#000000; stroke-width:1.000000; stroke-opacity:1; 
stroke-linecap:round; stroke-linejoin:round;">
<path style="fill:#000000; fill-opacity:1.0; 
stroke:#000000; stroke-width:1.000000; stroke-opacity:1; 
stroke-linecap:round; stroke-linejoin:round;fill-rule:evenodd;"
d="M 126877201.000000,81379999.000000
127527199.000000,81379999.000000
127527199.000000,79820001.000000
126877201.000000,79820001.000000
Z" /> 
<path style="fill:#000000; fill-opacity:1.0; 
stroke:#000000; stroke-width:1.000000; stroke-opacity:1; 
stroke-linecap:round; stroke-linejoin:round;fill-rule:evenodd;"
d="M 125927201.000000,81379999.000000
126577199.000000,81379999.000000
126577199.000000,79820001.000000
125927201.000000,79820001.000000
Z" /> 
<path style="fill:#000000; fill-opacity:1.0; 
stroke:#000000; stroke-width:1.000000; stroke-opacity:1; 
stroke-linecap:round; stroke-linejoin:round;fill-rule:evenodd;"
d="M 124977201.000000,81379999.000000
125627199.000000,81379999.000000
125627199.000000,79820001.000000
124977201.000000,79820001.000000
Z" /> 
<path style="fill:#000000; fill-opacity:1.0; 
stroke:#000000; stroke-width:1.000000; stroke-opacity:1; 
stroke-linecap:round; stroke-linejoin:round;fill-rule:evenodd;"
d="M 124977201.000000,78679999.000000
125627199.000000,78679999.000000
125627199.000000,77120001.000000
124977201.000000,77120001.000000
Z" /> 
<path style="fill:#000000; fill-opacity:1.0; 
stroke:#000000; stroke-width:1.000000; stroke-opacity:1; 
stroke-linecap:round; stroke-linejoin:round;fill-rule:evenodd;"
d="M 125927201.000000,78679999.000000
126577199.000000,78679999.000000
126577199.000000,77120001.000000
125927201.000000,77120001.000000
Z" /> 
<path style="fill:#000000; fill-opacity:1.0; 
stroke:#000000; stroke-width:1.000000; stroke-opacity:1; 
stroke-linecap:round; stroke-linejoin:round;fill-rule:evenodd;"
d="M 126877201.000000,78679999.000000
127527199.000000,78679999.000000
127527199.000000,77120001.000000
126877201.000000,77120001.000000
Z" /> 
</g>
<g >
</g>
<g >
</g>
<g style="fill:#000000; fill-opacity:1.0; 
stroke:#000000; stroke-width:1.000000; stroke-opacity:1; 
stroke-linecap:round; stroke-linejoin:round;">
</g>
<g style="fill:#000000; fill-opacity:1.0; 
stroke:#000000; stroke-width:800000.000000; stroke-opacity:1; 
stroke-linecap:round; stroke-linejoin:round;">
</g>
<g style="fill:#000000; fill-opacity:0.0; 
stroke:#000000; stroke-width:800000.000000; stroke-opacity:1; 
stroke-linecap:round; stroke-linejoin:round;">
<path d="M114502200 85000000
L115852200 85000000
" />
<path d="M115852200 85000000
L116802200 85950000
" />
<path d="M116802200 85950000
L116802200 87900000
" />
<path d="M116802200 87900000
L118502200 89600000
" />
<path d="M118502200 89600000
L127702200 89600000
" />
<path d="M127702200 89600000
L128052200 89250000
" />
<path d="M121252200 87500000
L118402200 87500000
" />
<path d="M118402200 87500000
L118002200 87100000
" />
<path d="M112252200 89000000
L112502200 89250000
" />
<path d="M118002200 87100000
L118002200 83250000
" />
<path d="M117252200 82500000
L112752200 82500000
" />
<path d="M118002200 83250000
L117252200 82500000
" />
<path d="M112752200 82500000
L112252200 83000000
" />
<path d="M112502200 89250000
L114752200 89250000
" />
<path d="M112252200 83000000
L112252200 89000000
" />
<path d="M145289700 80412500
L145802200 79900000
" />
</g>
<g style="fill:#000000; fill-opacity:0.0; 
stroke:#000000; stroke-width:400000.000000; stroke-opacity:1; 
stroke-linecap:round; stroke-linejoin:round;">
<path d="M144214700 80412500
L145289700 80412500
" />
</g>
<g style="fill:#000000; fill-opacity:0.0; 
stroke:#000000; stroke-width:500000.000000; stroke-opacity:1; 
stroke-linecap:round; stroke-linejoin:round;">
<path d="M145802200 78775000
L145802200 79900000
" />
<path d="M143502200 80500000
L145202200 80500000
" />
<path d="M145202200 80500000
L145802200 79900000
" />
<path d="M145777200 78750000
L145802200 78775000
" />
</g>
<g style="fill:#000000; fill-opacity:0.0; 
stroke:#000000; stroke-width:800000.000000; stroke-opacity:1; 
stroke-linecap:round; stroke-linejoin:round;">
<path d="M120402200 80600000
L123902200 80600000
" />
</g>
<g style="fill:#000000; fill-opacity:0.0; 
stroke:#000000; stroke-width:500000.000000; stroke-opacity:1; 
stroke-linecap:round; stroke-linejoin:round;">
<path d="M125302200 80600000
L123902200 80600000
" />
</g>
<g style="fill:#000000; fill-opacity:0.0; 
stroke:#000000; stroke-width:800000.000000; stroke-opacity:1; 
stroke-linecap:round; stroke-linejoin:round;">
<path d="M115452200 73800000
L114952200 74300000
" />
<path d="M135002200 77000000
L133252200 77000000
" />
<path d="M130602200 73800000
L115452200 73800000
" />
<path d="M136597200 78595000
L135002200 77000000
" />
</g>
<g style="fill:#000000; fill-opacity:0.0; 
stroke:#000000; stroke-width:500000.000000; stroke-opacity:1; 
stroke-linecap:round; stroke-linejoin:round;">
<path d="M133252200 77000000
L133252200 76450000
" />
<path d="M135847200 78905000
L136597200 78905000
" />
<path d="M136597200 78905000
L136597200 78595000
" />
<path d="M134427200 80325000
L135847200 78905000
" />
<path d="M114952200 74300000
L114252200 75000000
" />
<path d="M136597200 78905000
L136597200 79825000
" />
<path d="M134427200 81425000
L134427200 80325000
" />
</g>
<g style="fill:#000000; fill-opacity:0.0; 
stroke:#000000; stroke-width:1000000.000000; stroke-opacity:1; 
stroke-linecap:round; stroke-linejoin:round;">
<path d="M114252200 79750000
L114252200 75000000
" />
</g>
<g style="fill:#000000; fill-opacity:0.0; 
stroke:#000000; stroke-width:800000.000000; stroke-opacity:1; 
stroke-linecap:round; stroke-linejoin:round;">
<path d="M133252200 76450000
L130602200 73800000
" />
</g>
<g style="fill:#000000; fill-opacity:0.0; 
stroke:#000000; stroke-width:500000.000000; stroke-opacity:1; 
stroke-linecap:round; stroke-linejoin:round;">
<path d="M140089700 77500000
L139502200 77500000
" />
</g>
<g style="fill:#000000; fill-opacity:0.0; 
stroke:#000000; stroke-width:800000.000000; stroke-opacity:1; 
stroke-linecap:round; stroke-linejoin:round;">
<path d="M139502200 77500000
L139137200 77865000
" />
</g>
<g style="fill:#000000; fill-opacity:0.0; 
stroke:#000000; stroke-width:500000.000000; stroke-opacity:1; 
stroke-linecap:round; stroke-linejoin:round;">
<path d="M139137200 77865000
L139137200 79825000
" />
<path d="M143727200 78750000
L143577200 78900000
" />
</g>
<g style="fill:#000000; fill-opacity:0.0; 
stroke:#000000; stroke-width:800000.000000; stroke-opacity:1; 
stroke-linecap:round; stroke-linejoin:round;">
<path d="M143314700 78900000
L141914700 77500000
" />
</g>
<g style="fill:#000000; fill-opacity:0.0; 
stroke:#000000; stroke-width:500000.000000; stroke-opacity:1; 
stroke-linecap:round; stroke-linejoin:round;">
<path d="M143577200 78900000
L143314700 78900000
" />
</g>
<g style="fill:#000000; fill-opacity:0.0; 
stroke:#000000; stroke-width:800000.000000; stroke-opacity:1; 
stroke-linecap:round; stroke-linejoin:round;">
<path d="M134502200 88250000
L134502200 83575000
" />
<path d="M140407200 86905000
L141502200 88000000
" />
</g>
<g style="fill:#000000; fill-opacity:0.0; 
stroke:#000000; stroke-width:400000.000000; stroke-opacity:1; 
stroke-linecap:round; stroke-linejoin:round;">
<path d="M146979700 84100000
L146902200 84100000
" />
</g>
<g style="fill:#000000; fill-opacity:0.0; 
stroke:#000000; stroke-width:500000.000000; stroke-opacity:1; 
stroke-linecap:round; stroke-linejoin:round;">
<path d="M141502200 88750000
L141502200 88500000
" />
</g>
<g style="fill:#000000; fill-opacity:0.0; 
stroke:#000000; stroke-width:800000.000000; stroke-opacity:1; 
stroke-linecap:round; stroke-linejoin:round;">
<path d="M123102200 88000000
L121252200 88000000
" />
<path d="M146302200 89900000
L145502200 89900000
" />
</g>
<g style="fill:#000000; fill-opacity:0.0; 
stroke:#000000; stroke-width:500000.000000; stroke-opacity:1; 
stroke-linecap:round; stroke-linejoin:round;">
<path d="M140407200 84775000
L140407200 86905000
" />
</g>
<g style="fill:#000000; fill-opacity:0.0; 
stroke:#000000; stroke-width:800000.000000; stroke-opacity:1; 
stroke-linecap:round; stroke-linejoin:round;">
<path d="M145902200 85100000
L145902200 89500000
" />
<path d="M133502200 91000000
L116502200 91000000
" />
<path d="M134502200 89500000
L134502200 88250000
" />
<path d="M141502200 88500000
L141502200 90250000
" />
<path d="M125552200 87350000
L123752200 87350000
" />
<path d="M136002200 88500000
L134752200 88500000
" />
<path d="M141852200 89900000
L141502200 90250000
" />
<path d="M116502200 91000000
L114752200 89250000
" />
</g>
<g style="fill:#000000; fill-opacity:0.0; 
stroke:#000000; stroke-width:500000.000000; stroke-opacity:1; 
stroke-linecap:round; stroke-linejoin:round;">
<path d="M134752200 88500000
L134502200 88250000
" />
</g>
<g style="fill:#000000; fill-opacity:0.0; 
stroke:#000000; stroke-width:800000.000000; stroke-opacity:1; 
stroke-linecap:round; stroke-linejoin:round;">
<path d="M135352200 90750000
L134752200 90150000
" />
</g>
<g style="fill:#000000; fill-opacity:0.0; 
stroke:#000000; stroke-width:400000.000000; stroke-opacity:1; 
stroke-linecap:round; stroke-linejoin:round;">
<path d="M121339700 82750000
L121252680 82837020
" />
</g>
<g style="fill:#000000; fill-opacity:0.0; 
stroke:#000000; stroke-width:500000.000000; stroke-opacity:1; 
stroke-linecap:round; stroke-linejoin:round;">
<path d="M136752200 86750000
L137502200 86750000
" />
</g>
<g style="fill:#000000; fill-opacity:0.0; 
stroke:#000000; stroke-width:800000.000000; stroke-opacity:1; 
stroke-linecap:round; stroke-linejoin:round;">
<path d="M141502200 90250000
L141002200 90750000
" />
</g>
<g style="fill:#000000; fill-opacity:0.0; 
stroke:#000000; stroke-width:500000.000000; stroke-opacity:1; 
stroke-linecap:round; stroke-linejoin:round;">
<path d="M121252200 88000000
L121252200 87500000
" />
</g>
<g style="fill:#000000; fill-opacity:0.0; 
stroke:#000000; stroke-width:800000.000000; stroke-opacity:1; 
stroke-linecap:round; stroke-linejoin:round;">
<path d="M145502200 89900000
L141852200 89900000
" />
<path d="M136002200 87500000
L136752200 86750000
" />
<path d="M149802200 89900000
L146302200 89900000
" />
</g>
<g style="fill:#000000; fill-opacity:0.0; 
stroke:#000000; stroke-width:500000.000000; stroke-opacity:1; 
stroke-linecap:round; stroke-linejoin:round;">
<path d="M134502200 83575000
L134427200 83500000
" />
</g>
<g style="fill:#000000; fill-opacity:0.0; 
stroke:#000000; stroke-width:400000.000000; stroke-opacity:1; 
stroke-linecap:round; stroke-linejoin:round;">
<path d="M146902200 84100000
L145902200 85100000
" />
</g>
<g style="fill:#000000; fill-opacity:0.0; 
stroke:#000000; stroke-width:500000.000000; stroke-opacity:1; 
stroke-linecap:round; stroke-linejoin:round;">
<path d="M134752200 90150000
L134752200 89750000
" />
</g>
<g style="fill:#000000; fill-opacity:0.0; 
stroke:#000000; stroke-width:800000.000000; stroke-opacity:1; 
stroke-linecap:round; stroke-linejoin:round;">
<path d="M134752200 89750000
L133502200 91000000
" />
</g>
<g style="fill:#000000; fill-opacity:0.0; 
stroke:#000000; stroke-width:500000.000000; stroke-opacity:1; 
stroke-linecap:round; stroke-linejoin:round;">
<path d="M136002200 88500000
L136002200 87500000
" />
</g>
<g style="fill:#000000; fill-opacity:0.0; 
stroke:#000000; stroke-width:800000.000000; stroke-opacity:1; 
stroke-linecap:round; stroke-linejoin:round;">
<path d="M121252200 87500000
L121252200 82837500
" />
<path d="M123752200 87350000
L123102200 88000000
" />
</g>
<g style="fill:#000000; fill-opacity:0.0; 
stroke:#000000; stroke-width:500000.000000; stroke-opacity:1; 
stroke-linecap:round; stroke-linejoin:round;">
<path d="M141502200 88000000
L141502200 88500000
" />
<path d="M137502200 86750000
L137867200 86385000
" />
<path d="M121252200 82837500
L121339700 82750000
" />
</g>
<g style="fill:#000000; fill-opacity:0.0; 
stroke:#000000; stroke-width:400000.000000; stroke-opacity:1; 
stroke-linecap:round; stroke-linejoin:round;">
<path d="M145902200 89500000
L146302200 89900000
" />
</g>
<g style="fill:#000000; fill-opacity:0.0; 
stroke:#000000; stroke-width:800000.000000; stroke-opacity:1; 
stroke-linecap:round; stroke-linejoin:round;">
<path d="M134752200 89750000
L134502200 89500000
" />
<path d="M141002200 90750000
L135352200 90750000
" />
</g>
<g style="fill:#000000; fill-opacity:0.0; 
stroke:#000000; stroke-width:500000.000000; stroke-opacity:1; 
stroke-linecap:round; stroke-linejoin:round;">
<path d="M137867200 86385000
L137867200 84775000
" />
<path d="M136952200 82300000
L136502200 82750000
" />
</g>
<g style="fill:#000000; fill-opacity:0.0; 
stroke:#000000; stroke-width:800000.000000; stroke-opacity:1; 
stroke-linecap:round; stroke-linejoin:round;">
<path d="M147602200 76300000
L145777200 78125000
" />
</g>
<g style="fill:#000000; fill-opacity:0.0; 
stroke:#000000; stroke-width:400000.000000; stroke-opacity:1; 
stroke-linecap:round; stroke-linejoin:round;">
<path d="M143452200 80750000
L143252200 80750000
" />
</g>
<g style="fill:#000000; fill-opacity:0.0; 
stroke:#000000; stroke-width:500000.000000; stroke-opacity:1; 
stroke-linecap:round; stroke-linejoin:round;">
<path d="M140002200 82300000
L138502200 82300000
" />
</g>
<g style="fill:#000000; fill-opacity:0.0; 
stroke:#000000; stroke-width:800000.000000; stroke-opacity:1; 
stroke-linecap:round; stroke-linejoin:round;">
<path d="M140407200 81895000
L140002200 82300000
" />
<path d="M143252200 80750000
L141482200 82520000
" />
<path d="M147302200 75900000
L145877200 75900000
" />
<path d="M143902200 85800000
L143302200 85200000
" />
</g>
<g style="fill:#000000; fill-opacity:0.0; 
stroke:#000000; stroke-width:500000.000000; stroke-opacity:1; 
stroke-linecap:round; stroke-linejoin:round;">
<path d="M136502200 82750000
L136502200 84680000
" />
<path d="M138502200 82300000
L136952200 82300000
" />
</g>
<g style="fill:#000000; fill-opacity:0.0; 
stroke:#000000; stroke-width:800000.000000; stroke-opacity:1; 
stroke-linecap:round; stroke-linejoin:round;">
<path d="M145877200 75900000
L145777200 75800000
" />
<path d="M147602200 76200000
L147302200 75900000
" />
</g>
<g style="fill:#000000; fill-opacity:0.0; 
stroke:#000000; stroke-width:400000.000000; stroke-opacity:1; 
stroke-linecap:round; stroke-linejoin:round;">
<path d="M146979700 81500000
L144202200 81500000
" />
</g>
<g style="fill:#000000; fill-opacity:0.0; 
stroke:#000000; stroke-width:800000.000000; stroke-opacity:1; 
stroke-linecap:round; stroke-linejoin:round;">
<path d="M143902200 87425000
L143902200 85800000
" />
<path d="M147602200 76200000
L150202200 76200000
" />
<path d="M147602200 76200000
L147602200 76300000
" />
<path d="M140857200 81895000
L140407200 81895000
" />
<path d="M145777200 78125000
L145777200 78750000
" />
</g>
<g style="fill:#000000; fill-opacity:0.0; 
stroke:#000000; stroke-width:500000.000000; stroke-opacity:1; 
stroke-linecap:round; stroke-linejoin:round;">
<path d="M140407200 79825000
L140407200 81895000
" />
</g>
<g style="fill:#000000; fill-opacity:0.0; 
stroke:#000000; stroke-width:800000.000000; stroke-opacity:1; 
stroke-linecap:round; stroke-linejoin:round;">
<path d="M143502200 80500000
L143252200 80750000
" />
<path d="M141482200 82520000
L140857200 81895000
" />
</g>
<g style="fill:#000000; fill-opacity:0.0; 
stroke:#000000; stroke-width:500000.000000; stroke-opacity:1; 
stroke-linecap:round; stroke-linejoin:round;">
<path d="M143577200 87750000
L143902200 87425000
" />
</g>
<g style="fill:#000000; fill-opacity:0.0; 
stroke:#000000; stroke-width:800000.000000; stroke-opacity:1; 
stroke-linecap:round; stroke-linejoin:round;">
<path d="M143302200 84340000
L141482200 82520000
" />
<path d="M144202200 81500000
L143452200 80750000
" />
</g>
<g style="fill:#000000; fill-opacity:0.0; 
stroke:#000000; stroke-width:500000.000000; stroke-opacity:1; 
stroke-linecap:round; stroke-linejoin:round;">
<path d="M136502200 84680000
L136597200 84775000
" />
</g>
<g style="fill:#000000; fill-opacity:0.0; 
stroke:#000000; stroke-width:800000.000000; stroke-opacity:1; 
stroke-linecap:round; stroke-linejoin:round;">
<path d="M143302200 85200000
L143302200 84340000
" />
</g>
<g style="fill:#000000; fill-opacity:0.0; 
stroke:#000000; stroke-width:500000.000000; stroke-opacity:1; 
stroke-linecap:round; stroke-linejoin:round;">
<path d="M141214700 75800000
L141164700 75750000
" />
</g>
<g style="fill:#000000; fill-opacity:0.0; 
stroke:#000000; stroke-width:800000.000000; stroke-opacity:1; 
stroke-linecap:round; stroke-linejoin:round;">
<path d="M143727200 75800000
L141214700 75800000
" />
<path d="M131102200 77600000
L131102200 78500000
" />
</g>
<g style="fill:#000000; fill-opacity:0.0; 
stroke:#000000; stroke-width:500000.000000; stroke-opacity:1; 
stroke-linecap:round; stroke-linejoin:round;">
<path d="M132002200 81500000
L132002200 80250000
" />
</g>
<g style="fill:#000000; fill-opacity:0.0; 
stroke:#000000; stroke-width:800000.000000; stroke-opacity:1; 
stroke-linecap:round; stroke-linejoin:round;">
<path d="M132002200 80250000
L133252200 79000000
" />
<path d="M126951720 75500000
L129002200 75500000
" />
<path d="M126252200 76199520
L126951720 75500000
" />
<path d="M131102200 78500000
L131602200 79000000
" />
<path d="M129502200 75500000
L131102200 77100000
" />
</g>
<g style="fill:#000000; fill-opacity:0.0; 
stroke:#000000; stroke-width:500000.000000; stroke-opacity:1; 
stroke-linecap:round; stroke-linejoin:round;">
<path d="M126252200 77900000
L126252200 76199520
" />
<path d="M131602200 79000000
L133252200 79000000
" />
</g>
<g style="fill:#000000; fill-opacity:0.0; 
stroke:#000000; stroke-width:800000.000000; stroke-opacity:1; 
stroke-linecap:round; stroke-linejoin:round;">
<path d="M129002200 75500000
L129502200 75500000
" />
<path d="M131102200 77100000
L131102200 77600000
" />
</g>
<g style="fill:#000000; fill-opacity:0.0; 
stroke:#000000; stroke-width:500000.000000; stroke-opacity:1; 
stroke-linecap:round; stroke-linejoin:round;">
<path d="M137867200 77135000
L137867200 79825000
" />
<path d="M139289700 75800000
L139202200 75800000
" />
<path d="M139339700 75750000
L139289700 75800000
" />
</g>
<g style="fill:#000000; fill-opacity:0.0; 
stroke:#000000; stroke-width:800000.000000; stroke-opacity:1; 
stroke-linecap:round; stroke-linejoin:round;">
<path d="M139202200 75800000
L137867200 77135000
" />
</g>
<g style="fill:#000000; fill-opacity:0.0; 
stroke:#000000; stroke-width:500000.000000; stroke-opacity:1; 
stroke-linecap:round; stroke-linejoin:round;">
<path d="M126252200 82500000
L126252200 80600000
" />
</g>
<g style="fill:#000000; fill-opacity:0.0; 
stroke:#000000; stroke-width:800000.000000; stroke-opacity:1; 
stroke-linecap:round; stroke-linejoin:round;">
<path d="M126002200 82750000
L126252200 82500000
" />
<path d="M123164700 82750000
L126002200 82750000
" />
</g>
<g style="fill:#000000; fill-opacity:0.0; 
stroke:#000000; stroke-width:500000.000000; stroke-opacity:1; 
stroke-linecap:round; stroke-linejoin:round;">
<path d="M139137200 87365000
L139137200 84775000
" />
</g>
<g style="fill:#000000; fill-opacity:0.0; 
stroke:#000000; stroke-width:800000.000000; stroke-opacity:1; 
stroke-linecap:round; stroke-linejoin:round;">
<path d="M138002200 88500000
L139137200 87365000
" />
<path d="M132002200 87750000
L130502200 89250000
" />
<path d="M128052200 89250000
L130502200 89250000
" />
<path d="M130827200 83575000
L132002200 83575000
" />
</g>
<g style="fill:#000000; fill-opacity:0.0; 
stroke:#000000; stroke-width:500000.000000; stroke-opacity:1; 
stroke-linecap:round; stroke-linejoin:round;">
<path d="M127352200 76900000
L128652200 76900000
" />
</g>
<g style="fill:#000000; fill-opacity:0.0; 
stroke:#000000; stroke-width:800000.000000; stroke-opacity:1; 
stroke-linecap:round; stroke-linejoin:round;">
<path d="M132002200 83575000
L132002200 87750000
" />
<path d="M128652200 76900000
L129602200 77850000
" />
<path d="M129602200 82350000
L130827200 83575000
" />
</g>
<g style="fill:#000000; fill-opacity:0.0; 
stroke:#000000; stroke-width:500000.000000; stroke-opacity:1; 
stroke-linecap:round; stroke-linejoin:round;">
<path d="M127202200 77050000
L127352200 76900000
" />
</g>
<g style="fill:#000000; fill-opacity:0.0; 
stroke:#000000; stroke-width:800000.000000; stroke-opacity:1; 
stroke-linecap:round; stroke-linejoin:round;">
<path d="M129602200 77850000
L129602200 82350000
" />
</g>
<g style="fill:#000000; fill-opacity:0.0; 
stroke:#000000; stroke-width:500000.000000; stroke-opacity:1; 
stroke-linecap:round; stroke-linejoin:round;">
<path d="M127452200 87350000
L127452200 88950000
" />
<path d="M127752200 89250000
L128052200 89250000
" />
<path d="M127202200 77900000
L127202200 77050000
" />
</g>
<g style="fill:#000000; fill-opacity:0.0; 
stroke:#000000; stroke-width:800000.000000; stroke-opacity:1; 
stroke-linecap:round; stroke-linejoin:round;">
<path d="M127452200 88950000
L127752200 89250000
" />
<path d="M119702200 81300000
L120402200 80600000
" />
<path d="M119702200 85500000
L119702200 81300000
" />
<path d="M123652200 84650000
L122802200 85500000
" />
<path d="M125552200 84650000
L123652200 84650000
" />
</g>
<g style="fill:#000000; fill-opacity:0.0; 
stroke:#000000; stroke-width:500000.000000; stroke-opacity:1; 
stroke-linecap:round; stroke-linejoin:round;">
<path d="M127452200 84650000
L127452200 83050000
" />
<path d="M127802200 81200000
L127202200 80600000
" />
</g>
<g style="fill:#000000; fill-opacity:0.0; 
stroke:#000000; stroke-width:800000.000000; stroke-opacity:1; 
stroke-linecap:round; stroke-linejoin:round;">
<path d="M127802200 82700000
L127802200 81200000
" />
<path d="M127452200 83050000
L127802200 82700000
" />
</g>
<g style="fill:#000000; fill-opacity:0.0; 
stroke:#000000; stroke-width:500000.000000; stroke-opacity:1; 
stroke-linecap:round; stroke-linejoin:round;">
<path d="M148754700 86175000
L148369700 85790000
" />
</g>
<g style="fill:#000000; fill-opacity:0.0; 
stroke:#000000; stroke-width:800000.000000; stroke-opacity:1; 
stroke-linecap:round; stroke-linejoin:round;">
<path d="M150949700 84350000
L150949700 81650000
" />
</g>
<g style="fill:#000000; fill-opacity:0.0; 
stroke:#000000; stroke-width:500000.000000; stroke-opacity:1; 
stroke-linecap:round; stroke-linejoin:round;">
<path d="M150949700 86175000
L148754700 86175000
" />
<path d="M150949700 84350000
L150949700 86175000
" />
<path d="M150949700 81650000
L150949700 79425000
" />
<path d="M150564700 79810000
L150949700 79425000
" />
<path d="M148369700 79810000
L150564700 79810000
" />
</g>
<g >
</g>
</g>
<g style="fill:#FFFFFF; fill-opacity:0.0; 
stroke:#FFFFFF; stroke-width:500000.000000; stroke-opacity:1; 
stroke-linecap:round; stroke-linejoin:round;">
</g>
<g style="fill:#FFFFFF; fill-opacity:1.0; 
stroke:#FFFFFF; stroke-width:1.000000; stroke-opacity:1; 
stroke-linecap:round; stroke-linejoin:round;">
<circle cx="148862110.000000" cy="84679992.000000" r="200000.000000" /> 
</g>
<g style="fill:#FFFFFF; fill-opacity:1.0; 
stroke:#FFFFFF; stroke-width:21200.000000; stroke-opacity:1; 
stroke-linecap:round; stroke-linejoin:round;">
</g>
<g style="fill:#FFFFFF; fill-opacity:1.0; 
stroke:#FFFFFF; stroke-width:1.000000; stroke-opacity:1; 
stroke-linecap:round; stroke-linejoin:round;">
<circle cx="148862110.000000" cy="80940000.000000" r="200000.000000" /> 
</g>
<g style="fill:#FFFFFF; fill-opacity:1.0; 
stroke:#FFFFFF; stroke-width:21200.000000; stroke-opacity:1; 
stroke-linecap:round; stroke-linejoin:round;">
</g>
<g style="fill:#000000; fill-opacity:1.0; 
stroke:#000000; stroke-width:21200.000000; stroke-opacity:1; 
stroke-linecap:round; stroke-linejoin:round;">
</g> 
</svg>
